<mxfile host="app.diagrams.net" modified="2023-09-07T08:22:39.019Z" agent="Mozilla/5.0 (Macintosh; Intel Mac OS X 10_15_7) AppleWebKit/537.36 (KHTML, like Gecko) Chrome/116.0.0.0 Safari/537.36" etag="gzzD03KYDzEZzw3KCtbO" version="21.7.2" type="google">
  <diagram name="Page-1" id="YxA9F_rZ-KGNmKypnFQw">
    <mxGraphModel dx="1908" dy="3623" grid="1" gridSize="10" guides="1" tooltips="1" connect="1" arrows="1" fold="1" page="1" pageScale="1" pageWidth="3300" pageHeight="2339" math="0" shadow="0">
      <root>
        <mxCell id="0" />
        <mxCell id="1" parent="0" />
        <mxCell id="PHoqHaAgSBiXgSONhX6c-16" value="" style="group" vertex="1" connectable="0" parent="1">
          <mxGeometry x="40" y="100" width="2210" height="1410" as="geometry" />
        </mxCell>
        <mxCell id="PHoqHaAgSBiXgSONhX6c-11" value="" style="shape=folder;fontStyle=1;spacingTop=10;tabWidth=80;tabHeight=25;tabPosition=left;html=1;whiteSpace=wrap;align=left;container=0;" vertex="1" parent="PHoqHaAgSBiXgSONhX6c-16">
          <mxGeometry y="10.780000000000001" width="2210" height="1399.22" as="geometry" />
        </mxCell>
        <mxCell id="PHoqHaAgSBiXgSONhX6c-12" value="&lt;div style=&quot;&quot;&gt;&lt;p style=&quot;&quot;&gt;&lt;font style=&quot;font-size: 12px;&quot;&gt;app/src/main&lt;/font&gt;&lt;/p&gt;&lt;/div&gt;" style="text;html=1;align=center;verticalAlign=middle;resizable=0;points=[];autosize=1;strokeColor=none;fillColor=none;labelBackgroundColor=none;" vertex="1" parent="PHoqHaAgSBiXgSONhX6c-16">
          <mxGeometry x="22.726950354609933" width="90" height="50" as="geometry" />
        </mxCell>
        <mxCell id="PHoqHaAgSBiXgSONhX6c-8" value="" style="group" vertex="1" connectable="0" parent="1">
          <mxGeometry x="1320" y="474" width="890" height="996" as="geometry" />
        </mxCell>
        <mxCell id="PHoqHaAgSBiXgSONhX6c-6" value="" style="shape=folder;fontStyle=1;spacingTop=10;tabWidth=80;tabHeight=25;tabPosition=left;html=1;whiteSpace=wrap;align=left;" vertex="1" parent="PHoqHaAgSBiXgSONhX6c-8">
          <mxGeometry y="10.783464566929133" width="890.0000000000001" height="985.2165354330709" as="geometry" />
        </mxCell>
        <mxCell id="PHoqHaAgSBiXgSONhX6c-7" value="&lt;div style=&quot;&quot;&gt;&lt;p style=&quot;&quot;&gt;&lt;font style=&quot;font-size: 12px;&quot;&gt;Alien&lt;/font&gt;&lt;/p&gt;&lt;/div&gt;" style="text;html=1;align=center;verticalAlign=middle;resizable=0;points=[];autosize=1;strokeColor=none;fillColor=none;labelBackgroundColor=none;" vertex="1" parent="PHoqHaAgSBiXgSONhX6c-8">
          <mxGeometry x="20.829787234042552" width="50" height="50" as="geometry" />
        </mxCell>
        <mxCell id="nHcmHrCIsFXxvVlCUChO-37" value="AlienGridLocation" style="swimlane;fontStyle=1;align=center;verticalAlign=top;childLayout=stackLayout;horizontal=1;startSize=30;horizontalStack=0;resizeParent=1;resizeParentMax=0;resizeLast=0;collapsible=1;marginBottom=0;whiteSpace=wrap;html=1;" parent="PHoqHaAgSBiXgSONhX6c-8" vertex="1">
          <mxGeometry x="380" y="116" width="160" height="82" as="geometry" />
        </mxCell>
        <mxCell id="nHcmHrCIsFXxvVlCUChO-38" value="- rowIndex: int" style="text;strokeColor=none;fillColor=none;align=left;verticalAlign=top;spacingLeft=4;spacingRight=4;overflow=hidden;rotatable=0;points=[[0,0.5],[1,0.5]];portConstraint=eastwest;whiteSpace=wrap;html=1;" parent="nHcmHrCIsFXxvVlCUChO-37" vertex="1">
          <mxGeometry y="30" width="160" height="26" as="geometry" />
        </mxCell>
        <mxCell id="nHcmHrCIsFXxvVlCUChO-39" value="- colIndex: int" style="text;strokeColor=none;fillColor=none;align=left;verticalAlign=top;spacingLeft=4;spacingRight=4;overflow=hidden;rotatable=0;points=[[0,0.5],[1,0.5]];portConstraint=eastwest;whiteSpace=wrap;html=1;" parent="nHcmHrCIsFXxvVlCUChO-37" vertex="1">
          <mxGeometry y="56" width="160" height="26" as="geometry" />
        </mxCell>
        <mxCell id="PHoqHaAgSBiXgSONhX6c-3" value="" style="group" vertex="1" connectable="0" parent="1">
          <mxGeometry x="280" y="-140" width="450" height="235" as="geometry" />
        </mxCell>
        <mxCell id="PHoqHaAgSBiXgSONhX6c-1" value="" style="shape=folder;fontStyle=1;spacingTop=10;tabWidth=120;tabHeight=20;tabPosition=left;html=1;whiteSpace=wrap;align=left;" vertex="1" parent="PHoqHaAgSBiXgSONhX6c-3">
          <mxGeometry y="15" width="450" height="220" as="geometry" />
        </mxCell>
        <mxCell id="PHoqHaAgSBiXgSONhX6c-2" value="&lt;div style=&quot;&quot;&gt;&lt;p style=&quot;&quot;&gt;&lt;font style=&quot;font-size: 12px;&quot;&gt;ch.aplu.jgamegrid&lt;/font&gt;&lt;/p&gt;&lt;/div&gt;" style="text;html=1;align=center;verticalAlign=middle;resizable=0;points=[];autosize=1;strokeColor=none;fillColor=none;labelBackgroundColor=none;" vertex="1" parent="PHoqHaAgSBiXgSONhX6c-3">
          <mxGeometry width="120" height="50" as="geometry" />
        </mxCell>
        <mxCell id="nHcmHrCIsFXxvVlCUChO-49" value="Location" style="swimlane;fontStyle=1;align=center;verticalAlign=top;childLayout=stackLayout;horizontal=1;startSize=26;horizontalStack=0;resizeParent=1;resizeParentMax=0;resizeLast=0;collapsible=1;marginBottom=0;whiteSpace=wrap;html=1;" parent="PHoqHaAgSBiXgSONhX6c-3" vertex="1">
          <mxGeometry x="250" y="50" width="160" height="78" as="geometry" />
        </mxCell>
        <mxCell id="nHcmHrCIsFXxvVlCUChO-50" value="X" style="text;strokeColor=none;fillColor=none;align=left;verticalAlign=top;spacingLeft=4;spacingRight=4;overflow=hidden;rotatable=0;points=[[0,0.5],[1,0.5]];portConstraint=eastwest;whiteSpace=wrap;html=1;" parent="nHcmHrCIsFXxvVlCUChO-49" vertex="1">
          <mxGeometry y="26" width="160" height="26" as="geometry" />
        </mxCell>
        <mxCell id="nHcmHrCIsFXxvVlCUChO-51" value="Y" style="text;strokeColor=none;fillColor=none;align=left;verticalAlign=top;spacingLeft=4;spacingRight=4;overflow=hidden;rotatable=0;points=[[0,0.5],[1,0.5]];portConstraint=eastwest;whiteSpace=wrap;html=1;" parent="nHcmHrCIsFXxvVlCUChO-49" vertex="1">
          <mxGeometry y="52" width="160" height="26" as="geometry" />
        </mxCell>
        <mxCell id="nHcmHrCIsFXxvVlCUChO-53" value="&lt;div&gt;Actor&lt;/div&gt;" style="swimlane;fontStyle=1;align=center;verticalAlign=top;childLayout=stackLayout;horizontal=1;startSize=60;horizontalStack=0;resizeParent=1;resizeParentMax=0;resizeLast=0;collapsible=1;marginBottom=0;whiteSpace=wrap;html=1;" parent="PHoqHaAgSBiXgSONhX6c-3" vertex="1">
          <mxGeometry x="250" y="170" width="160" height="30" as="geometry" />
        </mxCell>
        <mxCell id="nHcmHrCIsFXxvVlCUChO-79" value="" style="endArrow=open;html=1;rounded=0;endFill=0;" parent="PHoqHaAgSBiXgSONhX6c-3" source="nHcmHrCIsFXxvVlCUChO-53" target="nHcmHrCIsFXxvVlCUChO-49" edge="1">
          <mxGeometry width="50" height="50" relative="1" as="geometry">
            <mxPoint x="375" y="905" as="sourcePoint" />
            <mxPoint x="425" y="855" as="targetPoint" />
          </mxGeometry>
        </mxCell>
        <mxCell id="nHcmHrCIsFXxvVlCUChO-80" value="1" style="edgeLabel;html=1;align=center;verticalAlign=middle;resizable=0;points=[];" parent="nHcmHrCIsFXxvVlCUChO-79" connectable="0" vertex="1">
          <mxGeometry x="-0.7073" y="-1" relative="1" as="geometry">
            <mxPoint x="-1" as="offset" />
          </mxGeometry>
        </mxCell>
        <mxCell id="nHcmHrCIsFXxvVlCUChO-81" value="1" style="edgeLabel;html=1;align=center;verticalAlign=middle;resizable=0;points=[];" parent="nHcmHrCIsFXxvVlCUChO-79" connectable="0" vertex="1">
          <mxGeometry x="0.863" relative="1" as="geometry">
            <mxPoint y="18" as="offset" />
          </mxGeometry>
        </mxCell>
        <mxCell id="nHcmHrCIsFXxvVlCUChO-82" value="at" style="edgeLabel;html=1;align=center;verticalAlign=middle;resizable=0;points=[];" parent="nHcmHrCIsFXxvVlCUChO-79" connectable="0" vertex="1">
          <mxGeometry x="-0.0794" relative="1" as="geometry">
            <mxPoint as="offset" />
          </mxGeometry>
        </mxCell>
        <mxCell id="6hLsqJvAcvqevbFhCGjU-11" value="&lt;div&gt;GameGrid&lt;/div&gt;" style="swimlane;fontStyle=1;align=center;verticalAlign=top;childLayout=stackLayout;horizontal=1;startSize=60;horizontalStack=0;resizeParent=1;resizeParentMax=0;resizeLast=0;collapsible=1;marginBottom=0;whiteSpace=wrap;html=1;" parent="PHoqHaAgSBiXgSONhX6c-3" vertex="1">
          <mxGeometry x="27.5" y="170" width="160" height="30" as="geometry" />
        </mxCell>
        <mxCell id="nHcmHrCIsFXxvVlCUChO-1" style="rounded=0;orthogonalLoop=1;jettySize=auto;html=1;endArrow=diamond;endFill=0;startArrow=open;startFill=0;" parent="1" source="nHcmHrCIsFXxvVlCUChO-5" target="nHcmHrCIsFXxvVlCUChO-29" edge="1">
          <mxGeometry relative="1" as="geometry" />
        </mxCell>
        <mxCell id="nHcmHrCIsFXxvVlCUChO-3" value="1" style="edgeLabel;html=1;align=center;verticalAlign=middle;resizable=0;points=[];fontSize=16;" parent="nHcmHrCIsFXxvVlCUChO-1" connectable="0" vertex="1">
          <mxGeometry x="-0.803" y="-2" relative="1" as="geometry">
            <mxPoint x="6" as="offset" />
          </mxGeometry>
        </mxCell>
        <mxCell id="nHcmHrCIsFXxvVlCUChO-4" value="1" style="edgeLabel;html=1;align=center;verticalAlign=middle;resizable=0;points=[];fontSize=16;" parent="nHcmHrCIsFXxvVlCUChO-1" connectable="0" vertex="1">
          <mxGeometry x="0.7121" y="1" relative="1" as="geometry">
            <mxPoint as="offset" />
          </mxGeometry>
        </mxCell>
        <mxCell id="B7cPMlpvFb_6B6Sl4Jg4-1" value="operates in" style="edgeLabel;html=1;align=center;verticalAlign=middle;resizable=0;points=[];" parent="nHcmHrCIsFXxvVlCUChO-1" connectable="0" vertex="1">
          <mxGeometry x="0.2054" y="4" relative="1" as="geometry">
            <mxPoint x="-10" y="-4" as="offset" />
          </mxGeometry>
        </mxCell>
        <mxCell id="nHcmHrCIsFXxvVlCUChO-5" value="SpaceInvader" style="swimlane;fontStyle=1;align=center;verticalAlign=top;childLayout=stackLayout;horizontal=1;startSize=26;horizontalStack=0;resizeParent=1;resizeParentMax=0;resizeLast=0;collapsible=1;marginBottom=0;whiteSpace=wrap;html=1;" parent="1" vertex="1">
          <mxGeometry x="290" y="190" width="195" height="660" as="geometry" />
        </mxCell>
        <mxCell id="nHcmHrCIsFXxvVlCUChO-6" value="- nbCols : int = 11" style="text;strokeColor=none;fillColor=none;align=left;verticalAlign=top;spacingLeft=4;spacingRight=4;overflow=hidden;rotatable=0;points=[[0,0.5],[1,0.5]];portConstraint=eastwest;whiteSpace=wrap;html=1;" parent="nHcmHrCIsFXxvVlCUChO-5" vertex="1">
          <mxGeometry y="26" width="195" height="26" as="geometry" />
        </mxCell>
        <mxCell id="nHcmHrCIsFXxvVlCUChO-7" value="- nbRows : int = 3" style="text;strokeColor=none;fillColor=none;align=left;verticalAlign=top;spacingLeft=4;spacingRight=4;overflow=hidden;rotatable=0;points=[[0,0.5],[1,0.5]];portConstraint=eastwest;whiteSpace=wrap;html=1;" parent="nHcmHrCIsFXxvVlCUChO-5" vertex="1">
          <mxGeometry y="52" width="195" height="26" as="geometry" />
        </mxCell>
        <mxCell id="nHcmHrCIsFXxvVlCUChO-9" value="- isGameOver : boolean = false" style="text;strokeColor=none;fillColor=none;align=left;verticalAlign=top;spacingLeft=4;spacingRight=4;overflow=hidden;rotatable=0;points=[[0,0.5],[1,0.5]];portConstraint=eastwest;whiteSpace=wrap;html=1;" parent="nHcmHrCIsFXxvVlCUChO-5" vertex="1">
          <mxGeometry y="78" width="195" height="26" as="geometry" />
        </mxCell>
        <mxCell id="nHcmHrCIsFXxvVlCUChO-10" value="- isAutoTesting : boolean = false" style="text;strokeColor=none;fillColor=none;align=left;verticalAlign=top;spacingLeft=4;spacingRight=4;overflow=hidden;rotatable=0;points=[[0,0.5],[1,0.5]];portConstraint=eastwest;whiteSpace=wrap;html=1;" parent="nHcmHrCIsFXxvVlCUChO-5" vertex="1">
          <mxGeometry y="104" width="195" height="26" as="geometry" />
        </mxCell>
        <mxCell id="nHcmHrCIsFXxvVlCUChO-8" value="- properties : Properties = null" style="text;strokeColor=none;fillColor=none;align=left;verticalAlign=top;spacingLeft=4;spacingRight=4;overflow=hidden;rotatable=0;points=[[0,0.5],[1,0.5]];portConstraint=eastwest;whiteSpace=wrap;html=1;" parent="nHcmHrCIsFXxvVlCUChO-5" vertex="1">
          <mxGeometry y="130" width="195" height="26" as="geometry" />
        </mxCell>
        <mxCell id="nHcmHrCIsFXxvVlCUChO-12" value="- logResult : StringBuilder = new StringBuilder()" style="text;strokeColor=none;fillColor=none;align=left;verticalAlign=top;spacingLeft=4;spacingRight=4;overflow=hidden;rotatable=0;points=[[0,0.5],[1,0.5]];portConstraint=eastwest;whiteSpace=wrap;html=1;" parent="nHcmHrCIsFXxvVlCUChO-5" vertex="1">
          <mxGeometry y="156" width="195" height="44" as="geometry" />
        </mxCell>
        <mxCell id="nHcmHrCIsFXxvVlCUChO-16" value="- alienGrid : Alien[][] = null" style="text;strokeColor=none;fillColor=none;align=left;verticalAlign=top;spacingLeft=4;spacingRight=4;overflow=hidden;rotatable=0;points=[[0,0.5],[1,0.5]];portConstraint=eastwest;whiteSpace=wrap;html=1;" parent="nHcmHrCIsFXxvVlCUChO-5" vertex="1">
          <mxGeometry y="200" width="195" height="26" as="geometry" />
        </mxCell>
        <mxCell id="nHcmHrCIsFXxvVlCUChO-97" value="" style="line;strokeWidth=1;fillColor=none;align=left;verticalAlign=middle;spacingTop=-1;spacingLeft=3;spacingRight=3;rotatable=0;labelPosition=right;points=[];portConstraint=eastwest;strokeColor=inherit;" parent="nHcmHrCIsFXxvVlCUChO-5" vertex="1">
          <mxGeometry y="226" width="195" height="8" as="geometry" />
        </mxCell>
        <mxCell id="3FaS0EqttLiCAW0qSDnd-1" value="# actorAdd(actor: Actor, location: Location): void" style="text;strokeColor=none;fillColor=none;align=left;verticalAlign=top;spacingLeft=4;spacingRight=4;overflow=hidden;rotatable=0;points=[[0,0.5],[1,0.5]];portConstraint=eastwest;whiteSpace=wrap;html=1;" parent="nHcmHrCIsFXxvVlCUChO-5" vertex="1">
          <mxGeometry y="234" width="195" height="36" as="geometry" />
        </mxCell>
        <mxCell id="3FaS0EqttLiCAW0qSDnd-2" value="# setIsAutoTesting(isAutoTesting: boolean): void" style="text;strokeColor=none;fillColor=none;align=left;verticalAlign=top;spacingLeft=4;spacingRight=4;overflow=hidden;rotatable=0;points=[[0,0.5],[1,0.5]];portConstraint=eastwest;whiteSpace=wrap;html=1;" parent="nHcmHrCIsFXxvVlCUChO-5" vertex="1">
          <mxGeometry y="270" width="195" height="40" as="geometry" />
        </mxCell>
        <mxCell id="nHcmHrCIsFXxvVlCUChO-105" value="- setupSpaceShip(): void" style="text;strokeColor=none;fillColor=none;align=left;verticalAlign=top;spacingLeft=4;spacingRight=4;overflow=hidden;rotatable=0;points=[[0,0.5],[1,0.5]];portConstraint=eastwest;whiteSpace=wrap;html=1;" parent="nHcmHrCIsFXxvVlCUChO-5" vertex="1">
          <mxGeometry y="310" width="195" height="26" as="geometry" />
        </mxCell>
        <mxCell id="nHcmHrCIsFXxvVlCUChO-106" value="+ runApp(isDisplayingUI: boolean): String" style="text;strokeColor=none;fillColor=none;align=left;verticalAlign=top;spacingLeft=4;spacingRight=4;overflow=hidden;rotatable=0;points=[[0,0.5],[1,0.5]];portConstraint=eastwest;whiteSpace=wrap;html=1;" parent="nHcmHrCIsFXxvVlCUChO-5" vertex="1">
          <mxGeometry y="336" width="195" height="42" as="geometry" />
        </mxCell>
        <mxCell id="nHcmHrCIsFXxvVlCUChO-125" value="+ act() : void" style="text;strokeColor=none;fillColor=none;align=left;verticalAlign=top;spacingLeft=4;spacingRight=4;overflow=hidden;rotatable=0;points=[[0,0.5],[1,0.5]];portConstraint=eastwest;whiteSpace=wrap;html=1;" parent="nHcmHrCIsFXxvVlCUChO-5" vertex="1">
          <mxGeometry y="378" width="195" height="30" as="geometry" />
        </mxCell>
        <mxCell id="nHcmHrCIsFXxvVlCUChO-126" value="# nofityAliensMoveFast(): void" style="text;strokeColor=none;fillColor=none;align=left;verticalAlign=top;spacingLeft=4;spacingRight=4;overflow=hidden;rotatable=0;points=[[0,0.5],[1,0.5]];portConstraint=eastwest;whiteSpace=wrap;html=1;" parent="nHcmHrCIsFXxvVlCUChO-5" vertex="1">
          <mxGeometry y="408" width="195" height="30" as="geometry" />
        </mxCell>
        <mxCell id="nHcmHrCIsFXxvVlCUChO-127" value="&lt;div&gt;# nofityAliensHit (actors: List&amp;lt;Actor&amp;gt;): void&lt;/div&gt;" style="text;strokeColor=none;fillColor=none;align=left;verticalAlign=top;spacingLeft=4;spacingRight=4;overflow=hidden;rotatable=0;points=[[0,0.5],[1,0.5]];portConstraint=eastwest;whiteSpace=wrap;html=1;" parent="nHcmHrCIsFXxvVlCUChO-5" vertex="1">
          <mxGeometry y="438" width="195" height="40" as="geometry" />
        </mxCell>
        <mxCell id="nHcmHrCIsFXxvVlCUChO-128" value="# setIsGameOver ( isOver: boolean): void" style="text;strokeColor=none;fillColor=none;align=left;verticalAlign=top;spacingLeft=4;spacingRight=4;overflow=hidden;rotatable=0;points=[[0,0.5],[1,0.5]];portConstraint=eastwest;whiteSpace=wrap;html=1;" parent="nHcmHrCIsFXxvVlCUChO-5" vertex="1">
          <mxGeometry y="478" width="195" height="40" as="geometry" />
        </mxCell>
        <mxCell id="3FaS0EqttLiCAW0qSDnd-5" value="+ keyPressed (keyEvent : KeyEvent ) : boolean" style="text;strokeColor=none;fillColor=none;align=left;verticalAlign=top;spacingLeft=4;spacingRight=4;overflow=hidden;rotatable=0;points=[[0,0.5],[1,0.5]];portConstraint=eastwest;whiteSpace=wrap;html=1;" parent="nHcmHrCIsFXxvVlCUChO-5" vertex="1">
          <mxGeometry y="518" width="195" height="40" as="geometry" />
        </mxCell>
        <mxCell id="3FaS0EqttLiCAW0qSDnd-6" value="+ keyReleased (keyEvent: KeyEvent ) : boolean" style="text;strokeColor=none;fillColor=none;align=left;verticalAlign=top;spacingLeft=4;spacingRight=4;overflow=hidden;rotatable=0;points=[[0,0.5],[1,0.5]];portConstraint=eastwest;whiteSpace=wrap;html=1;" parent="nHcmHrCIsFXxvVlCUChO-5" vertex="1">
          <mxGeometry y="558" width="195" height="40" as="geometry" />
        </mxCell>
        <mxCell id="3FaS0EqttLiCAW0qSDnd-3" value="# isPlus(): boolean" style="text;strokeColor=none;fillColor=none;align=left;verticalAlign=top;spacingLeft=4;spacingRight=4;overflow=hidden;rotatable=0;points=[[0,0.5],[1,0.5]];portConstraint=eastwest;whiteSpace=wrap;html=1;" parent="nHcmHrCIsFXxvVlCUChO-5" vertex="1">
          <mxGeometry y="598" width="195" height="32" as="geometry" />
        </mxCell>
        <mxCell id="3FaS0EqttLiCAW0qSDnd-7" value="# getAlienGrid(): Alien[][]" style="text;strokeColor=none;fillColor=none;align=left;verticalAlign=top;spacingLeft=4;spacingRight=4;overflow=hidden;rotatable=0;points=[[0,0.5],[1,0.5]];portConstraint=eastwest;whiteSpace=wrap;html=1;" parent="nHcmHrCIsFXxvVlCUChO-5" vertex="1">
          <mxGeometry y="630" width="195" height="30" as="geometry" />
        </mxCell>
        <mxCell id="dt_egxWnVOecb_urPC3f-6" style="rounded=0;orthogonalLoop=1;jettySize=auto;html=1;endArrow=block;endFill=0;exitX=0.5;exitY=0;exitDx=0;exitDy=0;" parent="1" source="nHcmHrCIsFXxvVlCUChO-27" target="nHcmHrCIsFXxvVlCUChO-53" edge="1">
          <mxGeometry relative="1" as="geometry" />
        </mxCell>
        <mxCell id="nHcmHrCIsFXxvVlCUChO-27" value="Bomb" style="swimlane;fontStyle=1;align=center;verticalAlign=top;childLayout=stackLayout;horizontal=1;startSize=30;horizontalStack=0;resizeParent=1;resizeParentMax=0;resizeLast=0;collapsible=1;marginBottom=0;whiteSpace=wrap;html=1;" parent="1" vertex="1">
          <mxGeometry x="890" y="520" width="160" height="128" as="geometry" />
        </mxCell>
        <mxCell id="0K7w1-AbEdA5WqQMigwM-1" value="&lt;div&gt;+ reset() : void&lt;/div&gt;" style="text;strokeColor=none;fillColor=none;align=left;verticalAlign=top;spacingLeft=4;spacingRight=4;overflow=hidden;rotatable=0;points=[[0,0.5],[1,0.5]];portConstraint=eastwest;whiteSpace=wrap;html=1;" parent="nHcmHrCIsFXxvVlCUChO-27" vertex="1">
          <mxGeometry y="30" width="160" height="32" as="geometry" />
        </mxCell>
        <mxCell id="C3Ac_o-vcIDmd2U1g95Q-9" value="" style="line;strokeWidth=1;fillColor=none;align=left;verticalAlign=middle;spacingTop=-1;spacingLeft=3;spacingRight=3;rotatable=0;labelPosition=right;points=[];portConstraint=eastwest;strokeColor=inherit;" parent="nHcmHrCIsFXxvVlCUChO-27" vertex="1">
          <mxGeometry y="62" width="160" height="8" as="geometry" />
        </mxCell>
        <mxCell id="C3Ac_o-vcIDmd2U1g95Q-8" value="&amp;nbsp;" style="text;strokeColor=none;fillColor=none;align=left;verticalAlign=top;spacingLeft=4;spacingRight=4;overflow=hidden;rotatable=0;points=[[0,0.5],[1,0.5]];portConstraint=eastwest;whiteSpace=wrap;html=1;" parent="nHcmHrCIsFXxvVlCUChO-27" vertex="1">
          <mxGeometry y="70" width="160" height="26" as="geometry" />
        </mxCell>
        <mxCell id="0K7w1-AbEdA5WqQMigwM-2" value="+ act() : void" style="text;strokeColor=none;fillColor=none;align=left;verticalAlign=top;spacingLeft=4;spacingRight=4;overflow=hidden;rotatable=0;points=[[0,0.5],[1,0.5]];portConstraint=eastwest;whiteSpace=wrap;html=1;" parent="nHcmHrCIsFXxvVlCUChO-27" vertex="1">
          <mxGeometry y="96" width="160" height="32" as="geometry" />
        </mxCell>
        <mxCell id="dt_egxWnVOecb_urPC3f-7" style="rounded=0;orthogonalLoop=1;jettySize=auto;html=1;endArrow=block;endFill=0;exitX=0.5;exitY=0;exitDx=0;exitDy=0;" parent="1" source="nHcmHrCIsFXxvVlCUChO-28" target="nHcmHrCIsFXxvVlCUChO-53" edge="1">
          <mxGeometry relative="1" as="geometry" />
        </mxCell>
        <mxCell id="nHcmHrCIsFXxvVlCUChO-28" value="Explosion" style="swimlane;fontStyle=1;align=center;verticalAlign=top;childLayout=stackLayout;horizontal=1;startSize=28;horizontalStack=0;resizeParent=1;resizeParentMax=0;resizeLast=0;collapsible=1;marginBottom=0;whiteSpace=wrap;html=1;" parent="1" vertex="1">
          <mxGeometry x="1130" y="520" width="160" height="88" as="geometry" />
        </mxCell>
        <mxCell id="C3Ac_o-vcIDmd2U1g95Q-5" value="&amp;nbsp;" style="text;strokeColor=none;fillColor=none;align=left;verticalAlign=top;spacingLeft=4;spacingRight=4;overflow=hidden;rotatable=0;points=[[0,0.5],[1,0.5]];portConstraint=eastwest;whiteSpace=wrap;html=1;" parent="nHcmHrCIsFXxvVlCUChO-28" vertex="1">
          <mxGeometry y="28" width="160" height="26" as="geometry" />
        </mxCell>
        <mxCell id="C3Ac_o-vcIDmd2U1g95Q-6" value="" style="line;strokeWidth=1;fillColor=none;align=left;verticalAlign=middle;spacingTop=-1;spacingLeft=3;spacingRight=3;rotatable=0;labelPosition=right;points=[];portConstraint=eastwest;strokeColor=inherit;" parent="nHcmHrCIsFXxvVlCUChO-28" vertex="1">
          <mxGeometry y="54" width="160" height="8" as="geometry" />
        </mxCell>
        <mxCell id="C3Ac_o-vcIDmd2U1g95Q-7" value="+ act(): void" style="text;strokeColor=none;fillColor=none;align=left;verticalAlign=top;spacingLeft=4;spacingRight=4;overflow=hidden;rotatable=0;points=[[0,0.5],[1,0.5]];portConstraint=eastwest;whiteSpace=wrap;html=1;" parent="nHcmHrCIsFXxvVlCUChO-28" vertex="1">
          <mxGeometry y="62" width="160" height="26" as="geometry" />
        </mxCell>
        <mxCell id="nHcmHrCIsFXxvVlCUChO-29" value="SpaceShip" style="swimlane;fontStyle=1;align=center;verticalAlign=top;childLayout=stackLayout;horizontal=1;startSize=26;horizontalStack=0;resizeParent=1;resizeParentMax=0;resizeLast=0;collapsible=1;marginBottom=0;whiteSpace=wrap;html=1;" parent="1" vertex="1">
          <mxGeometry x="600" y="516" width="215" height="450" as="geometry" />
        </mxCell>
        <mxCell id="6hLsqJvAcvqevbFhCGjU-52" value="-&amp;nbsp;NB_SHOTS_LV2: int = 10" style="text;strokeColor=none;fillColor=none;align=left;verticalAlign=top;spacingLeft=4;spacingRight=4;overflow=hidden;rotatable=0;points=[[0,0.5],[1,0.5]];portConstraint=eastwest;whiteSpace=wrap;html=1;" parent="nHcmHrCIsFXxvVlCUChO-29" vertex="1">
          <mxGeometry y="26" width="215" height="26" as="geometry" />
        </mxCell>
        <mxCell id="6hLsqJvAcvqevbFhCGjU-53" value="-&amp;nbsp;NB_SHOTS_LV3: int = 50" style="text;strokeColor=none;fillColor=none;align=left;verticalAlign=top;spacingLeft=4;spacingRight=4;overflow=hidden;rotatable=0;points=[[0,0.5],[1,0.5]];portConstraint=eastwest;whiteSpace=wrap;html=1;" parent="nHcmHrCIsFXxvVlCUChO-29" vertex="1">
          <mxGeometry y="52" width="215" height="26" as="geometry" />
        </mxCell>
        <mxCell id="6hLsqJvAcvqevbFhCGjU-54" value="-&amp;nbsp;NB_SHOTS_LV4: int = 100" style="text;strokeColor=none;fillColor=none;align=left;verticalAlign=top;spacingLeft=4;spacingRight=4;overflow=hidden;rotatable=0;points=[[0,0.5],[1,0.5]];portConstraint=eastwest;whiteSpace=wrap;html=1;" parent="nHcmHrCIsFXxvVlCUChO-29" vertex="1">
          <mxGeometry y="78" width="215" height="26" as="geometry" />
        </mxCell>
        <mxCell id="6hLsqJvAcvqevbFhCGjU-55" value="-&amp;nbsp;NB_SHOTS_LV5: int = 500" style="text;strokeColor=none;fillColor=none;align=left;verticalAlign=top;spacingLeft=4;spacingRight=4;overflow=hidden;rotatable=0;points=[[0,0.5],[1,0.5]];portConstraint=eastwest;whiteSpace=wrap;html=1;" parent="nHcmHrCIsFXxvVlCUChO-29" vertex="1">
          <mxGeometry y="104" width="215" height="26" as="geometry" />
        </mxCell>
        <mxCell id="nHcmHrCIsFXxvVlCUChO-30" value="- nbShots: int = 0" style="text;strokeColor=none;fillColor=none;align=left;verticalAlign=top;spacingLeft=4;spacingRight=4;overflow=hidden;rotatable=0;points=[[0,0.5],[1,0.5]];portConstraint=eastwest;whiteSpace=wrap;html=1;" parent="nHcmHrCIsFXxvVlCUChO-29" vertex="1">
          <mxGeometry y="130" width="215" height="26" as="geometry" />
        </mxCell>
        <mxCell id="nHcmHrCIsFXxvVlCUChO-32" value="- IsAutoTesting: boolean = false" style="text;strokeColor=none;fillColor=none;align=left;verticalAlign=top;spacingLeft=4;spacingRight=4;overflow=hidden;rotatable=0;points=[[0,0.5],[1,0.5]];portConstraint=eastwest;whiteSpace=wrap;html=1;" parent="nHcmHrCIsFXxvVlCUChO-29" vertex="1">
          <mxGeometry y="156" width="215" height="26" as="geometry" />
        </mxCell>
        <mxCell id="nHcmHrCIsFXxvVlCUChO-33" value="- controls: List&amp;lt;String&amp;gt; = null&lt;span style=&quot;white-space: pre;&quot;&gt;&#x9;&lt;/span&gt;" style="text;strokeColor=none;fillColor=none;align=left;verticalAlign=top;spacingLeft=4;spacingRight=4;overflow=hidden;rotatable=0;points=[[0,0.5],[1,0.5]];portConstraint=eastwest;whiteSpace=wrap;html=1;" parent="nHcmHrCIsFXxvVlCUChO-29" vertex="1">
          <mxGeometry y="182" width="215" height="26" as="geometry" />
        </mxCell>
        <mxCell id="nHcmHrCIsFXxvVlCUChO-34" value="- controlIndex: int = 0" style="text;strokeColor=none;fillColor=none;align=left;verticalAlign=top;spacingLeft=4;spacingRight=4;overflow=hidden;rotatable=0;points=[[0,0.5],[1,0.5]];portConstraint=eastwest;whiteSpace=wrap;html=1;" parent="nHcmHrCIsFXxvVlCUChO-29" vertex="1">
          <mxGeometry y="208" width="215" height="26" as="geometry" />
        </mxCell>
        <mxCell id="C3Ac_o-vcIDmd2U1g95Q-3" value="" style="line;strokeWidth=1;fillColor=none;align=left;verticalAlign=middle;spacingTop=-1;spacingLeft=3;spacingRight=3;rotatable=0;labelPosition=right;points=[];portConstraint=eastwest;strokeColor=inherit;" parent="nHcmHrCIsFXxvVlCUChO-29" vertex="1">
          <mxGeometry y="234" width="215" height="8" as="geometry" />
        </mxCell>
        <mxCell id="C3Ac_o-vcIDmd2U1g95Q-1" value="- setTestingConditions(isAutoTesting: boolean,&amp;nbsp; controls: List&amp;lt;String&amp;gt;): void&amp;nbsp;" style="text;strokeColor=none;fillColor=none;align=left;verticalAlign=top;spacingLeft=4;spacingRight=4;overflow=hidden;rotatable=0;points=[[0,0.5],[1,0.5]];portConstraint=eastwest;whiteSpace=wrap;html=1;" parent="nHcmHrCIsFXxvVlCUChO-29" vertex="1">
          <mxGeometry y="242" width="215" height="38" as="geometry" />
        </mxCell>
        <mxCell id="0K7w1-AbEdA5WqQMigwM-3" value="- autoMove(): void" style="text;strokeColor=none;fillColor=none;align=left;verticalAlign=top;spacingLeft=4;spacingRight=4;overflow=hidden;rotatable=0;points=[[0,0.5],[1,0.5]];portConstraint=eastwest;whiteSpace=wrap;html=1;" parent="nHcmHrCIsFXxvVlCUChO-29" vertex="1">
          <mxGeometry y="280" width="215" height="30" as="geometry" />
        </mxCell>
        <mxCell id="0K7w1-AbEdA5WqQMigwM-4" value="+ act(): void" style="text;strokeColor=none;fillColor=none;align=left;verticalAlign=top;spacingLeft=4;spacingRight=4;overflow=hidden;rotatable=0;points=[[0,0.5],[1,0.5]];portConstraint=eastwest;whiteSpace=wrap;html=1;" parent="nHcmHrCIsFXxvVlCUChO-29" vertex="1">
          <mxGeometry y="310" width="215" height="30" as="geometry" />
        </mxCell>
        <mxCell id="0K7w1-AbEdA5WqQMigwM-5" value="~ moveTo(location: Location) : void" style="text;strokeColor=none;fillColor=none;align=left;verticalAlign=top;spacingLeft=4;spacingRight=4;overflow=hidden;rotatable=0;points=[[0,0.5],[1,0.5]];portConstraint=eastwest;whiteSpace=wrap;html=1;" parent="nHcmHrCIsFXxvVlCUChO-29" vertex="1">
          <mxGeometry y="340" width="215" height="30" as="geometry" />
        </mxCell>
        <mxCell id="0K7w1-AbEdA5WqQMigwM-6" value="+ keyPressed (keyEvent : KeyEvent ) : boolean" style="text;strokeColor=none;fillColor=none;align=left;verticalAlign=top;spacingLeft=4;spacingRight=4;overflow=hidden;rotatable=0;points=[[0,0.5],[1,0.5]];portConstraint=eastwest;whiteSpace=wrap;html=1;" parent="nHcmHrCIsFXxvVlCUChO-29" vertex="1">
          <mxGeometry y="370" width="215" height="40" as="geometry" />
        </mxCell>
        <mxCell id="0K7w1-AbEdA5WqQMigwM-7" value="+ keyReleased (keyEvent: KeyEvent ) : boolean" style="text;strokeColor=none;fillColor=none;align=left;verticalAlign=top;spacingLeft=4;spacingRight=4;overflow=hidden;rotatable=0;points=[[0,0.5],[1,0.5]];portConstraint=eastwest;whiteSpace=wrap;html=1;" parent="nHcmHrCIsFXxvVlCUChO-29" vertex="1">
          <mxGeometry y="410" width="215" height="40" as="geometry" />
        </mxCell>
        <mxCell id="nHcmHrCIsFXxvVlCUChO-35" value="Driver" style="swimlane;fontStyle=1;align=center;verticalAlign=top;childLayout=stackLayout;horizontal=1;startSize=26;horizontalStack=0;resizeParent=1;resizeParentMax=0;resizeLast=0;collapsible=1;marginBottom=0;whiteSpace=wrap;html=1;" parent="1" vertex="1">
          <mxGeometry x="80" y="810" width="190" height="134" as="geometry" />
        </mxCell>
        <mxCell id="nHcmHrCIsFXxvVlCUChO-36" value="&lt;div&gt;+ DEFAULT_PROPERTIES_PATH: String = &quot;properties/game3.properties&quot;&lt;/div&gt;" style="text;strokeColor=none;fillColor=none;align=left;verticalAlign=top;spacingLeft=4;spacingRight=4;overflow=hidden;rotatable=0;points=[[0,0.5],[1,0.5]];portConstraint=eastwest;whiteSpace=wrap;html=1;fontStyle=4" parent="nHcmHrCIsFXxvVlCUChO-35" vertex="1">
          <mxGeometry y="26" width="190" height="74" as="geometry" />
        </mxCell>
        <mxCell id="0K7w1-AbEdA5WqQMigwM-12" value="" style="line;strokeWidth=1;fillColor=none;align=left;verticalAlign=middle;spacingTop=-1;spacingLeft=3;spacingRight=3;rotatable=0;labelPosition=right;points=[];portConstraint=eastwest;strokeColor=inherit;fontSize=16;" parent="nHcmHrCIsFXxvVlCUChO-35" vertex="1">
          <mxGeometry y="100" width="190" height="8" as="geometry" />
        </mxCell>
        <mxCell id="0K7w1-AbEdA5WqQMigwM-9" value="+ &lt;u&gt;main(args: String[]) : void&lt;/u&gt;" style="text;strokeColor=none;fillColor=none;align=left;verticalAlign=top;spacingLeft=4;spacingRight=4;overflow=hidden;rotatable=0;points=[[0,0.5],[1,0.5]];portConstraint=eastwest;whiteSpace=wrap;html=1;" parent="nHcmHrCIsFXxvVlCUChO-35" vertex="1">
          <mxGeometry y="108" width="190" height="26" as="geometry" />
        </mxCell>
        <mxCell id="6hLsqJvAcvqevbFhCGjU-25" style="rounded=0;orthogonalLoop=1;jettySize=auto;html=1;entryX=0.276;entryY=1.029;entryDx=0;entryDy=0;entryPerimeter=0;startArrow=open;startFill=0;endArrow=diamond;endFill=0;exitX=0.5;exitY=0;exitDx=0;exitDy=0;" parent="1" source="nHcmHrCIsFXxvVlCUChO-37" target="6hLsqJvAcvqevbFhCGjU-42" edge="1">
          <mxGeometry relative="1" as="geometry">
            <mxPoint x="1800" y="590" as="sourcePoint" />
          </mxGeometry>
        </mxCell>
        <mxCell id="6hLsqJvAcvqevbFhCGjU-26" value="creates PowerfulAlien" style="edgeLabel;html=1;align=center;verticalAlign=middle;resizable=0;points=[];" parent="6hLsqJvAcvqevbFhCGjU-25" connectable="0" vertex="1">
          <mxGeometry x="0.043" relative="1" as="geometry">
            <mxPoint y="5" as="offset" />
          </mxGeometry>
        </mxCell>
        <mxCell id="6hLsqJvAcvqevbFhCGjU-27" value="*" style="edgeLabel;html=1;align=center;verticalAlign=middle;resizable=0;points=[];" parent="6hLsqJvAcvqevbFhCGjU-25" connectable="0" vertex="1">
          <mxGeometry x="-0.595" y="3" relative="1" as="geometry">
            <mxPoint as="offset" />
          </mxGeometry>
        </mxCell>
        <mxCell id="6hLsqJvAcvqevbFhCGjU-28" value="1" style="edgeLabel;html=1;align=center;verticalAlign=middle;resizable=0;points=[];" parent="6hLsqJvAcvqevbFhCGjU-25" connectable="0" vertex="1">
          <mxGeometry x="0.7379" relative="1" as="geometry">
            <mxPoint x="10" as="offset" />
          </mxGeometry>
        </mxCell>
        <mxCell id="nHcmHrCIsFXxvVlCUChO-40" style="rounded=0;orthogonalLoop=1;jettySize=auto;html=1;endArrow=block;endFill=0;" parent="1" source="nHcmHrCIsFXxvVlCUChO-70" target="nHcmHrCIsFXxvVlCUChO-17" edge="1">
          <mxGeometry relative="1" as="geometry">
            <mxPoint x="1405" y="320" as="targetPoint" />
          </mxGeometry>
        </mxCell>
        <mxCell id="nHcmHrCIsFXxvVlCUChO-41" style="rounded=0;orthogonalLoop=1;jettySize=auto;html=1;endArrow=block;endFill=0;" parent="1" source="nHcmHrCIsFXxvVlCUChO-71" target="nHcmHrCIsFXxvVlCUChO-17" edge="1">
          <mxGeometry relative="1" as="geometry" />
        </mxCell>
        <mxCell id="nHcmHrCIsFXxvVlCUChO-42" style="rounded=0;orthogonalLoop=1;jettySize=auto;html=1;endArrow=block;endFill=0;" parent="1" source="nHcmHrCIsFXxvVlCUChO-72" target="nHcmHrCIsFXxvVlCUChO-17" edge="1">
          <mxGeometry relative="1" as="geometry">
            <mxPoint x="1405" y="320" as="targetPoint" />
          </mxGeometry>
        </mxCell>
        <mxCell id="nHcmHrCIsFXxvVlCUChO-47" style="rounded=0;orthogonalLoop=1;jettySize=auto;html=1;endArrow=none;endFill=0;startArrow=block;startFill=0;entryX=0.5;entryY=0;entryDx=0;entryDy=0;" parent="1" source="nHcmHrCIsFXxvVlCUChO-53" target="nHcmHrCIsFXxvVlCUChO-17" edge="1">
          <mxGeometry relative="1" as="geometry" />
        </mxCell>
        <mxCell id="nHcmHrCIsFXxvVlCUChO-52" value="PropertiesLoader" style="swimlane;fontStyle=1;align=center;verticalAlign=top;childLayout=stackLayout;horizontal=1;startSize=28;horizontalStack=0;resizeParent=1;resizeParentMax=0;resizeLast=0;collapsible=1;marginBottom=0;whiteSpace=wrap;html=1;" parent="1" vertex="1">
          <mxGeometry x="95" y="1000" width="160" height="90" as="geometry" />
        </mxCell>
        <mxCell id="0K7w1-AbEdA5WqQMigwM-14" value="" style="line;strokeWidth=1;fillColor=none;align=left;verticalAlign=middle;spacingTop=-1;spacingLeft=3;spacingRight=3;rotatable=0;labelPosition=right;points=[];portConstraint=eastwest;strokeColor=inherit;fontSize=16;" parent="nHcmHrCIsFXxvVlCUChO-52" vertex="1">
          <mxGeometry y="28" width="160" height="8" as="geometry" />
        </mxCell>
        <mxCell id="0K7w1-AbEdA5WqQMigwM-13" value="+ &lt;u&gt;loadPropertiesFile ( propertiesFile : &lt;/u&gt;&lt;u&gt;String &lt;/u&gt;&lt;u&gt;) : &lt;/u&gt;&lt;u&gt;Properties &lt;/u&gt;" style="text;strokeColor=none;fillColor=none;align=left;verticalAlign=top;spacingLeft=4;spacingRight=4;overflow=hidden;rotatable=0;points=[[0,0.5],[1,0.5]];portConstraint=eastwest;whiteSpace=wrap;html=1;" parent="nHcmHrCIsFXxvVlCUChO-52" vertex="1">
          <mxGeometry y="36" width="160" height="54" as="geometry" />
        </mxCell>
        <mxCell id="nHcmHrCIsFXxvVlCUChO-54" value="" style="endArrow=open;html=1;rounded=0;dashed=1;dashPattern=8 8;endFill=0;" parent="1" source="nHcmHrCIsFXxvVlCUChO-52" target="nHcmHrCIsFXxvVlCUChO-35" edge="1">
          <mxGeometry width="50" height="50" relative="1" as="geometry">
            <mxPoint x="205" y="1145" as="sourcePoint" />
            <mxPoint x="325" y="1130" as="targetPoint" />
          </mxGeometry>
        </mxCell>
        <mxCell id="nHcmHrCIsFXxvVlCUChO-55" value="&amp;lt;&amp;lt;uses&amp;gt;&amp;gt;" style="edgeLabel;html=1;align=center;verticalAlign=middle;resizable=0;points=[];" parent="nHcmHrCIsFXxvVlCUChO-54" connectable="0" vertex="1">
          <mxGeometry x="0.0745" y="-1" relative="1" as="geometry">
            <mxPoint y="1" as="offset" />
          </mxGeometry>
        </mxCell>
        <mxCell id="nHcmHrCIsFXxvVlCUChO-58" style="rounded=0;orthogonalLoop=1;jettySize=auto;html=1;endArrow=block;endFill=0;" parent="1" source="nHcmHrCIsFXxvVlCUChO-74" target="nHcmHrCIsFXxvVlCUChO-17" edge="1">
          <mxGeometry relative="1" as="geometry">
            <mxPoint x="1290" y="320" as="targetPoint" />
          </mxGeometry>
        </mxCell>
        <mxCell id="nHcmHrCIsFXxvVlCUChO-59" value="" style="endArrow=open;html=1;rounded=0;dashed=1;dashPattern=8 8;endFill=0;" parent="1" source="nHcmHrCIsFXxvVlCUChO-35" target="nHcmHrCIsFXxvVlCUChO-5" edge="1">
          <mxGeometry width="50" height="50" relative="1" as="geometry">
            <mxPoint x="385" y="1040" as="sourcePoint" />
            <mxPoint x="435" y="990" as="targetPoint" />
          </mxGeometry>
        </mxCell>
        <mxCell id="nHcmHrCIsFXxvVlCUChO-60" value="&amp;lt;&amp;lt;instantiates&amp;gt;&amp;gt;" style="edgeLabel;html=1;align=center;verticalAlign=middle;resizable=0;points=[];fontSize=16;" parent="nHcmHrCIsFXxvVlCUChO-59" connectable="0" vertex="1">
          <mxGeometry x="-0.1282" y="-3" relative="1" as="geometry">
            <mxPoint x="-25" y="19" as="offset" />
          </mxGeometry>
        </mxCell>
        <mxCell id="nHcmHrCIsFXxvVlCUChO-63" style="rounded=0;orthogonalLoop=1;jettySize=auto;html=1;endArrow=openThin;endFill=0;dashed=1;" parent="1" source="nHcmHrCIsFXxvVlCUChO-29" target="nHcmHrCIsFXxvVlCUChO-27" edge="1">
          <mxGeometry relative="1" as="geometry">
            <mxPoint x="1040" y="480" as="targetPoint" />
          </mxGeometry>
        </mxCell>
        <mxCell id="nHcmHrCIsFXxvVlCUChO-64" value="&lt;font style=&quot;font-size: 12px;&quot;&gt;&amp;lt;&amp;lt;instantiates&amp;gt;&amp;gt;&lt;/font&gt;" style="edgeLabel;html=1;align=center;verticalAlign=middle;resizable=0;points=[];fontSize=16;" parent="nHcmHrCIsFXxvVlCUChO-63" connectable="0" vertex="1">
          <mxGeometry x="-0.4" relative="1" as="geometry">
            <mxPoint x="28" y="-2" as="offset" />
          </mxGeometry>
        </mxCell>
        <mxCell id="nHcmHrCIsFXxvVlCUChO-70" value="PowerfulAlien" style="swimlane;fontStyle=1;align=center;verticalAlign=top;childLayout=stackLayout;horizontal=1;startSize=26;horizontalStack=0;resizeParent=1;resizeParentMax=0;resizeLast=0;collapsible=1;marginBottom=0;whiteSpace=wrap;html=1;movable=1;resizable=1;rotatable=1;deletable=1;editable=1;locked=0;connectable=1;" parent="1" vertex="1">
          <mxGeometry x="1531" y="1346" width="160" height="94" as="geometry" />
        </mxCell>
        <mxCell id="j8oC89BNTdd1fM97KV6f-13" value="- STARTING_NB_LIVES: int = 5" style="text;strokeColor=none;fillColor=none;align=left;verticalAlign=top;spacingLeft=4;spacingRight=4;overflow=hidden;rotatable=1;points=[[0,0.5],[1,0.5]];portConstraint=eastwest;whiteSpace=wrap;html=1;movable=1;resizable=1;deletable=1;editable=1;locked=0;connectable=1;" parent="nHcmHrCIsFXxvVlCUChO-70" vertex="1">
          <mxGeometry y="26" width="160" height="34" as="geometry" />
        </mxCell>
        <mxCell id="C3Ac_o-vcIDmd2U1g95Q-17" value="# nbLives: int = STARTING_NB_LIVES&lt;br&gt;&amp;nbsp;" style="text;strokeColor=none;fillColor=none;align=left;verticalAlign=top;spacingLeft=4;spacingRight=4;overflow=hidden;rotatable=1;points=[[0,0.5],[1,0.5]];portConstraint=eastwest;whiteSpace=wrap;html=1;movable=1;resizable=1;deletable=1;editable=1;locked=0;connectable=1;" parent="nHcmHrCIsFXxvVlCUChO-70" vertex="1">
          <mxGeometry y="60" width="160" height="34" as="geometry" />
        </mxCell>
        <mxCell id="nHcmHrCIsFXxvVlCUChO-71" value="NormalAlien" style="swimlane;fontStyle=1;align=center;verticalAlign=top;childLayout=stackLayout;horizontal=1;startSize=26;horizontalStack=0;resizeParent=1;resizeParentMax=0;resizeLast=0;collapsible=1;marginBottom=0;whiteSpace=wrap;html=1;movable=1;resizable=1;rotatable=1;deletable=1;editable=1;locked=0;connectable=1;" parent="1" vertex="1">
          <mxGeometry x="1341" y="1380" width="160" height="60" as="geometry" />
        </mxCell>
        <mxCell id="nHcmHrCIsFXxvVlCUChO-72" value="InvulnerableAlien" style="swimlane;fontStyle=1;align=center;verticalAlign=top;childLayout=stackLayout;horizontal=1;startSize=26;horizontalStack=0;resizeParent=1;resizeParentMax=0;resizeLast=0;collapsible=1;marginBottom=0;whiteSpace=wrap;html=1;movable=1;resizable=1;rotatable=1;deletable=1;editable=1;locked=0;connectable=1;" parent="1" vertex="1">
          <mxGeometry x="1721" y="1280" width="160" height="160" as="geometry" />
        </mxCell>
        <mxCell id="j8oC89BNTdd1fM97KV6f-16" value="&lt;div&gt;+ STEPS_INVULNERABLE int = 5&lt;/div&gt;&lt;div&gt;&lt;br&gt;&lt;/div&gt;" style="text;strokeColor=none;fillColor=none;align=left;verticalAlign=top;spacingLeft=4;spacingRight=4;overflow=hidden;rotatable=1;points=[[0,0.5],[1,0.5]];portConstraint=eastwest;whiteSpace=wrap;html=1;movable=1;resizable=1;deletable=1;editable=1;locked=0;connectable=1;" parent="nHcmHrCIsFXxvVlCUChO-72" vertex="1">
          <mxGeometry y="26" width="160" height="44" as="geometry" />
        </mxCell>
        <mxCell id="C3Ac_o-vcIDmd2U1g95Q-23" value="-&amp;nbsp; invulnerabilityTimer: int = 0" style="text;strokeColor=none;fillColor=none;align=left;verticalAlign=top;spacingLeft=4;spacingRight=4;overflow=hidden;rotatable=1;points=[[0,0.5],[1,0.5]];portConstraint=eastwest;whiteSpace=wrap;html=1;movable=1;resizable=1;deletable=1;editable=1;locked=0;connectable=1;" parent="nHcmHrCIsFXxvVlCUChO-72" vertex="1">
          <mxGeometry y="70" width="160" height="40" as="geometry" />
        </mxCell>
        <mxCell id="0K7w1-AbEdA5WqQMigwM-16" value="" style="line;strokeWidth=1;fillColor=none;align=left;verticalAlign=middle;spacingTop=-1;spacingLeft=3;spacingRight=3;rotatable=1;labelPosition=right;points=[];portConstraint=eastwest;strokeColor=inherit;fontSize=16;movable=1;resizable=1;deletable=1;editable=1;locked=0;connectable=1;" parent="nHcmHrCIsFXxvVlCUChO-72" vertex="1">
          <mxGeometry y="110" width="160" height="8" as="geometry" />
        </mxCell>
        <mxCell id="C3Ac_o-vcIDmd2U1g95Q-13" value="+ act(): void" style="text;strokeColor=none;fillColor=none;align=left;verticalAlign=top;spacingLeft=4;spacingRight=4;overflow=hidden;rotatable=1;points=[[0,0.5],[1,0.5]];portConstraint=eastwest;whiteSpace=wrap;html=1;movable=1;resizable=1;deletable=1;editable=1;locked=0;connectable=1;" parent="nHcmHrCIsFXxvVlCUChO-72" vertex="1">
          <mxGeometry y="118" width="160" height="42" as="geometry" />
        </mxCell>
        <mxCell id="6hLsqJvAcvqevbFhCGjU-29" style="rounded=0;orthogonalLoop=1;jettySize=auto;html=1;exitX=0.5;exitY=0;exitDx=0;exitDy=0;endArrow=diamond;endFill=0;startArrow=open;startFill=0;" parent="1" source="nHcmHrCIsFXxvVlCUChO-74" target="6hLsqJvAcvqevbFhCGjU-15" edge="1">
          <mxGeometry relative="1" as="geometry" />
        </mxCell>
        <mxCell id="6hLsqJvAcvqevbFhCGjU-30" value="keeps track of" style="edgeLabel;html=1;align=center;verticalAlign=middle;resizable=0;points=[];" parent="6hLsqJvAcvqevbFhCGjU-29" connectable="0" vertex="1">
          <mxGeometry x="-0.0789" relative="1" as="geometry">
            <mxPoint x="-1" as="offset" />
          </mxGeometry>
        </mxCell>
        <mxCell id="6hLsqJvAcvqevbFhCGjU-31" value="*" style="edgeLabel;html=1;align=center;verticalAlign=middle;resizable=0;points=[];" parent="6hLsqJvAcvqevbFhCGjU-29" connectable="0" vertex="1">
          <mxGeometry x="-0.8355" y="1" relative="1" as="geometry">
            <mxPoint x="4" y="1" as="offset" />
          </mxGeometry>
        </mxCell>
        <mxCell id="6hLsqJvAcvqevbFhCGjU-32" value="1" style="edgeLabel;html=1;align=center;verticalAlign=middle;resizable=0;points=[];" parent="6hLsqJvAcvqevbFhCGjU-29" connectable="0" vertex="1">
          <mxGeometry x="0.7699" y="-5" relative="1" as="geometry">
            <mxPoint y="-53" as="offset" />
          </mxGeometry>
        </mxCell>
        <mxCell id="nHcmHrCIsFXxvVlCUChO-74" value="MultipleAlien" style="swimlane;fontStyle=1;align=center;verticalAlign=top;childLayout=stackLayout;horizontal=1;startSize=26;horizontalStack=0;resizeParent=1;resizeParentMax=0;resizeLast=0;collapsible=1;marginBottom=0;whiteSpace=wrap;html=1;movable=1;resizable=1;rotatable=1;deletable=1;editable=1;locked=0;connectable=1;" parent="1" vertex="1">
          <mxGeometry x="1911" y="770" width="280" height="670" as="geometry" />
        </mxCell>
        <mxCell id="6hLsqJvAcvqevbFhCGjU-8" value="+&amp;nbsp;isMultiplied(): boolean" style="text;strokeColor=none;fillColor=none;align=left;verticalAlign=top;spacingLeft=4;spacingRight=4;overflow=hidden;rotatable=1;points=[[0,0.5],[1,0.5]];portConstraint=eastwest;whiteSpace=wrap;html=1;movable=1;resizable=1;deletable=1;editable=1;locked=0;connectable=1;" parent="nHcmHrCIsFXxvVlCUChO-74" vertex="1">
          <mxGeometry y="26" width="280" height="40" as="geometry" />
        </mxCell>
        <mxCell id="6hLsqJvAcvqevbFhCGjU-7" value="&lt;u&gt;+ resetCountDownAndTrigger(): void&lt;/u&gt;" style="text;strokeColor=none;fillColor=none;align=left;verticalAlign=top;spacingLeft=4;spacingRight=4;overflow=hidden;rotatable=1;points=[[0,0.5],[1,0.5]];portConstraint=eastwest;whiteSpace=wrap;html=1;movable=1;resizable=1;deletable=1;editable=1;locked=0;connectable=1;" parent="nHcmHrCIsFXxvVlCUChO-74" vertex="1">
          <mxGeometry y="66" width="280" height="40" as="geometry" />
        </mxCell>
        <mxCell id="6hLsqJvAcvqevbFhCGjU-10" value="&lt;u&gt;+&amp;nbsp;isMultiplyCountDownTriggered(): boolean&lt;/u&gt;" style="text;strokeColor=none;fillColor=none;align=left;verticalAlign=top;spacingLeft=4;spacingRight=4;overflow=hidden;rotatable=1;points=[[0,0.5],[1,0.5]];portConstraint=eastwest;whiteSpace=wrap;html=1;movable=1;resizable=1;deletable=1;editable=1;locked=0;connectable=1;" parent="nHcmHrCIsFXxvVlCUChO-74" vertex="1">
          <mxGeometry y="106" width="280" height="40" as="geometry" />
        </mxCell>
        <mxCell id="6hLsqJvAcvqevbFhCGjU-9" value="&lt;u&gt;+&amp;nbsp;getMultiplyCountDown(): int&lt;/u&gt;" style="text;strokeColor=none;fillColor=none;align=left;verticalAlign=top;spacingLeft=4;spacingRight=4;overflow=hidden;rotatable=1;points=[[0,0.5],[1,0.5]];portConstraint=eastwest;whiteSpace=wrap;html=1;movable=1;resizable=1;deletable=1;editable=1;locked=0;connectable=1;" parent="nHcmHrCIsFXxvVlCUChO-74" vertex="1">
          <mxGeometry y="146" width="280" height="40" as="geometry" />
        </mxCell>
        <mxCell id="PRz1MJROxwDu_hD-6JeQ-9" value="+ act(): void" style="text;strokeColor=none;fillColor=none;align=left;verticalAlign=top;spacingLeft=4;spacingRight=4;overflow=hidden;rotatable=0;points=[[0,0.5],[1,0.5]];portConstraint=eastwest;whiteSpace=wrap;html=1;" parent="nHcmHrCIsFXxvVlCUChO-74" vertex="1">
          <mxGeometry y="186" width="280" height="26" as="geometry" />
        </mxCell>
        <mxCell id="6hLsqJvAcvqevbFhCGjU-6" value="&lt;span style=&quot;font-weight: normal;&quot;&gt;&lt;u&gt;+ initiateMultiplyCountDown(): void&lt;/u&gt;&lt;/span&gt;" style="text;strokeColor=none;fillColor=none;align=left;verticalAlign=top;spacingLeft=4;spacingRight=4;overflow=hidden;rotatable=1;points=[[0,0.5],[1,0.5]];portConstraint=eastwest;whiteSpace=wrap;html=1;movable=1;resizable=1;deletable=1;editable=1;locked=0;connectable=1;fontStyle=1" parent="nHcmHrCIsFXxvVlCUChO-74" vertex="1">
          <mxGeometry y="212" width="280" height="40" as="geometry" />
        </mxCell>
        <mxCell id="C3Ac_o-vcIDmd2U1g95Q-24" value="- turnIntoNormal(): void" style="text;strokeColor=none;fillColor=none;align=left;verticalAlign=top;spacingLeft=4;spacingRight=4;overflow=hidden;rotatable=1;points=[[0,0.5],[1,0.5]];portConstraint=eastwest;whiteSpace=wrap;html=1;movable=1;resizable=1;deletable=1;editable=1;locked=0;connectable=1;" parent="nHcmHrCIsFXxvVlCUChO-74" vertex="1">
          <mxGeometry y="252" width="280" height="40" as="geometry" />
        </mxCell>
        <mxCell id="C3Ac_o-vcIDmd2U1g95Q-14" value="- multiply(AlienGrid: alienGridt): Alien[][]" style="text;strokeColor=none;fillColor=none;align=left;verticalAlign=top;spacingLeft=4;spacingRight=4;overflow=hidden;rotatable=1;points=[[0,0.5],[1,0.5]];portConstraint=eastwest;whiteSpace=wrap;html=1;movable=1;resizable=1;deletable=1;editable=1;locked=0;connectable=1;" parent="nHcmHrCIsFXxvVlCUChO-74" vertex="1">
          <mxGeometry y="292" width="280" height="40" as="geometry" />
        </mxCell>
        <mxCell id="0K7w1-AbEdA5WqQMigwM-15" value="" style="line;strokeWidth=1;fillColor=none;align=left;verticalAlign=middle;spacingTop=-1;spacingLeft=3;spacingRight=3;rotatable=1;labelPosition=right;points=[];portConstraint=eastwest;strokeColor=inherit;fontSize=16;movable=1;resizable=1;deletable=1;editable=1;locked=0;connectable=1;" parent="nHcmHrCIsFXxvVlCUChO-74" vertex="1">
          <mxGeometry y="332" width="280" height="8" as="geometry" />
        </mxCell>
        <mxCell id="PRz1MJROxwDu_hD-6JeQ-8" value="- rowToMultiply: int" style="text;strokeColor=none;fillColor=none;align=left;verticalAlign=top;spacingLeft=4;spacingRight=4;overflow=hidden;rotatable=0;points=[[0,0.5],[1,0.5]];portConstraint=eastwest;whiteSpace=wrap;html=1;fontStyle=4" parent="nHcmHrCIsFXxvVlCUChO-74" vertex="1">
          <mxGeometry y="340" width="280" height="26" as="geometry" />
        </mxCell>
        <mxCell id="PRz1MJROxwDu_hD-6JeQ-7" value="- rowToRemove: int" style="text;strokeColor=none;fillColor=none;align=left;verticalAlign=top;spacingLeft=4;spacingRight=4;overflow=hidden;rotatable=0;points=[[0,0.5],[1,0.5]];portConstraint=eastwest;whiteSpace=wrap;html=1;fontStyle=4" parent="nHcmHrCIsFXxvVlCUChO-74" vertex="1">
          <mxGeometry y="366" width="280" height="26" as="geometry" />
        </mxCell>
        <mxCell id="C3Ac_o-vcIDmd2U1g95Q-18" value="- multiplied: boolean = false" style="text;strokeColor=none;fillColor=none;align=left;verticalAlign=top;spacingLeft=4;spacingRight=4;overflow=hidden;rotatable=1;points=[[0,0.5],[1,0.5]];portConstraint=eastwest;whiteSpace=wrap;html=1;movable=1;resizable=1;deletable=1;editable=1;locked=0;connectable=1;" parent="nHcmHrCIsFXxvVlCUChO-74" vertex="1">
          <mxGeometry y="392" width="280" height="34" as="geometry" />
        </mxCell>
        <mxCell id="6hLsqJvAcvqevbFhCGjU-5" value="- &lt;u&gt;multiplyCountDownTriggered&lt;/u&gt;: boolean = false" style="text;strokeColor=none;fillColor=none;align=left;verticalAlign=top;spacingLeft=4;spacingRight=4;overflow=hidden;rotatable=1;points=[[0,0.5],[1,0.5]];portConstraint=eastwest;whiteSpace=wrap;html=1;movable=1;resizable=1;deletable=1;editable=1;locked=0;connectable=1;" parent="nHcmHrCIsFXxvVlCUChO-74" vertex="1">
          <mxGeometry y="426" width="280" height="34" as="geometry" />
        </mxCell>
        <mxCell id="6hLsqJvAcvqevbFhCGjU-2" value="- &lt;u&gt;multiplyCountDown&lt;/u&gt;: int" style="text;strokeColor=none;fillColor=none;align=left;verticalAlign=top;spacingLeft=4;spacingRight=4;overflow=hidden;rotatable=1;points=[[0,0.5],[1,0.5]];portConstraint=eastwest;whiteSpace=wrap;html=1;movable=1;resizable=1;deletable=1;editable=1;locked=0;connectable=1;" parent="nHcmHrCIsFXxvVlCUChO-74" vertex="1">
          <mxGeometry y="460" width="280" height="34" as="geometry" />
        </mxCell>
        <mxCell id="6hLsqJvAcvqevbFhCGjU-1" value="- &lt;u&gt;MAX_MULTIPLY_COUNT_DOWN&lt;/u&gt;: int = 20" style="text;strokeColor=none;fillColor=none;align=left;verticalAlign=top;spacingLeft=4;spacingRight=4;overflow=hidden;rotatable=1;points=[[0,0.5],[1,0.5]];portConstraint=eastwest;whiteSpace=wrap;html=1;movable=1;resizable=1;deletable=1;editable=1;locked=0;connectable=1;" parent="nHcmHrCIsFXxvVlCUChO-74" vertex="1">
          <mxGeometry y="494" width="280" height="34" as="geometry" />
        </mxCell>
        <mxCell id="PRz1MJROxwDu_hD-6JeQ-14" value="&lt;u&gt;+ checkIsTopSpaceRowEmpty(alienGrid: Alien[][]): boolean&lt;/u&gt;" style="text;strokeColor=none;fillColor=none;align=left;verticalAlign=top;spacingLeft=4;spacingRight=4;overflow=hidden;rotatable=0;points=[[0,0.5],[1,0.5]];portConstraint=eastwest;whiteSpace=wrap;html=1;" parent="nHcmHrCIsFXxvVlCUChO-74" vertex="1">
          <mxGeometry y="528" width="280" height="38" as="geometry" />
        </mxCell>
        <mxCell id="PRz1MJROxwDu_hD-6JeQ-13" value="&lt;u&gt;+ decrementRowToRemove(): void&lt;/u&gt;" style="text;strokeColor=none;fillColor=none;align=left;verticalAlign=top;spacingLeft=4;spacingRight=4;overflow=hidden;rotatable=0;points=[[0,0.5],[1,0.5]];portConstraint=eastwest;whiteSpace=wrap;html=1;" parent="nHcmHrCIsFXxvVlCUChO-74" vertex="1">
          <mxGeometry y="566" width="280" height="26" as="geometry" />
        </mxCell>
        <mxCell id="PRz1MJROxwDu_hD-6JeQ-12" value="&lt;u&gt;+ getRowToRemove(): int&lt;/u&gt;" style="text;strokeColor=none;fillColor=none;align=left;verticalAlign=top;spacingLeft=4;spacingRight=4;overflow=hidden;rotatable=0;points=[[0,0.5],[1,0.5]];portConstraint=eastwest;whiteSpace=wrap;html=1;" parent="nHcmHrCIsFXxvVlCUChO-74" vertex="1">
          <mxGeometry y="592" width="280" height="26" as="geometry" />
        </mxCell>
        <mxCell id="PRz1MJROxwDu_hD-6JeQ-11" value="&lt;u&gt;+ setInitRowToMultiply(rowToRemove: int): void&lt;/u&gt;" style="text;strokeColor=none;fillColor=none;align=left;verticalAlign=top;spacingLeft=4;spacingRight=4;overflow=hidden;rotatable=0;points=[[0,0.5],[1,0.5]];portConstraint=eastwest;whiteSpace=wrap;html=1;" parent="nHcmHrCIsFXxvVlCUChO-74" vertex="1">
          <mxGeometry y="618" width="280" height="26" as="geometry" />
        </mxCell>
        <mxCell id="PRz1MJROxwDu_hD-6JeQ-10" value="&lt;u&gt;+ setInitRowToRemove(rowToRemove: int): void&lt;/u&gt;" style="text;strokeColor=none;fillColor=none;align=left;verticalAlign=top;spacingLeft=4;spacingRight=4;overflow=hidden;rotatable=0;points=[[0,0.5],[1,0.5]];portConstraint=eastwest;whiteSpace=wrap;html=1;" parent="nHcmHrCIsFXxvVlCUChO-74" vertex="1">
          <mxGeometry y="644" width="280" height="26" as="geometry" />
        </mxCell>
        <mxCell id="6hLsqJvAcvqevbFhCGjU-12" style="rounded=0;orthogonalLoop=1;jettySize=auto;html=1;exitX=0.5;exitY=0;exitDx=0;exitDy=0;entryX=0.5;entryY=1;entryDx=0;entryDy=0;endArrow=block;endFill=0;" parent="1" source="nHcmHrCIsFXxvVlCUChO-5" target="6hLsqJvAcvqevbFhCGjU-11" edge="1">
          <mxGeometry relative="1" as="geometry">
            <mxPoint x="706.8" y="948" as="sourcePoint" />
            <mxPoint x="776.8" y="1290" as="targetPoint" />
          </mxGeometry>
        </mxCell>
        <mxCell id="6hLsqJvAcvqevbFhCGjU-13" style="rounded=0;orthogonalLoop=1;jettySize=auto;html=1;endArrow=block;endFill=0;exitX=0.5;exitY=0;exitDx=0;exitDy=0;" parent="1" source="nHcmHrCIsFXxvVlCUChO-29" target="nHcmHrCIsFXxvVlCUChO-53" edge="1">
          <mxGeometry relative="1" as="geometry">
            <mxPoint x="1040" y="718" as="sourcePoint" />
            <mxPoint x="900" y="1120" as="targetPoint" />
          </mxGeometry>
        </mxCell>
        <mxCell id="6hLsqJvAcvqevbFhCGjU-15" value="AlienController" style="swimlane;fontStyle=1;align=center;verticalAlign=top;childLayout=stackLayout;horizontal=1;startSize=28;horizontalStack=0;resizeParent=1;resizeParentMax=0;resizeLast=0;collapsible=1;marginBottom=0;whiteSpace=wrap;html=1;" parent="1" vertex="1">
          <mxGeometry x="1650" y="180" width="560" height="296" as="geometry" />
        </mxCell>
        <mxCell id="vmWwxW54YIU1MooWZ_e--10" value="&amp;nbsp;" style="text;strokeColor=none;fillColor=none;align=left;verticalAlign=top;spacingLeft=4;spacingRight=4;overflow=hidden;rotatable=0;points=[[0,0.5],[1,0.5]];portConstraint=eastwest;whiteSpace=wrap;html=1;" parent="6hLsqJvAcvqevbFhCGjU-15" vertex="1">
          <mxGeometry y="28" width="560" height="26" as="geometry" />
        </mxCell>
        <mxCell id="vmWwxW54YIU1MooWZ_e--9" value="" style="line;strokeWidth=1;fillColor=none;align=left;verticalAlign=middle;spacingTop=-1;spacingLeft=3;spacingRight=3;rotatable=0;labelPosition=right;points=[];portConstraint=eastwest;strokeColor=inherit;" parent="6hLsqJvAcvqevbFhCGjU-15" vertex="1">
          <mxGeometry y="54" width="560" height="8" as="geometry" />
        </mxCell>
        <mxCell id="6hLsqJvAcvqevbFhCGjU-18" value="- convertFromProperty(properties: Properties, propertyName: String): ArrayList&amp;lt;AlienGridLocation&amp;gt;" style="text;strokeColor=none;fillColor=none;align=left;verticalAlign=top;spacingLeft=4;spacingRight=4;overflow=hidden;rotatable=0;points=[[0,0.5],[1,0.5]];portConstraint=eastwest;whiteSpace=wrap;html=1;" parent="6hLsqJvAcvqevbFhCGjU-15" vertex="1">
          <mxGeometry y="62" width="560" height="26" as="geometry" />
        </mxCell>
        <mxCell id="6hLsqJvAcvqevbFhCGjU-34" value="- setupAlienLocations(properties: Properties): void" style="text;strokeColor=none;fillColor=none;align=left;verticalAlign=top;spacingLeft=4;spacingRight=4;overflow=hidden;rotatable=0;points=[[0,0.5],[1,0.5]];portConstraint=eastwest;whiteSpace=wrap;html=1;" parent="6hLsqJvAcvqevbFhCGjU-15" vertex="1">
          <mxGeometry y="88" width="560" height="26" as="geometry" />
        </mxCell>
        <mxCell id="6hLsqJvAcvqevbFhCGjU-33" value="-&amp;nbsp;arrayContains(locations:ArrayList&amp;lt;AlienGridLocation&amp;gt;&lt;span style=&quot;background-color: initial;&quot;&gt;, rowIndex: int, colIndex: int): boolean&lt;/span&gt;" style="text;strokeColor=none;fillColor=none;align=left;verticalAlign=top;spacingLeft=4;spacingRight=4;overflow=hidden;rotatable=0;points=[[0,0.5],[1,0.5]];portConstraint=eastwest;whiteSpace=wrap;html=1;" parent="6hLsqJvAcvqevbFhCGjU-15" vertex="1">
          <mxGeometry y="114" width="560" height="26" as="geometry" />
        </mxCell>
        <mxCell id="6hLsqJvAcvqevbFhCGjU-37" value="# setupAliens(properties: Properties, nbRows: int, nbCols: int, spaceInvader: SpaceInvader): Alien[][]&amp;nbsp;" style="text;strokeColor=none;fillColor=none;align=left;verticalAlign=top;spacingLeft=4;spacingRight=4;overflow=hidden;rotatable=0;points=[[0,0.5],[1,0.5]];portConstraint=eastwest;whiteSpace=wrap;html=1;" parent="6hLsqJvAcvqevbFhCGjU-15" vertex="1">
          <mxGeometry y="140" width="560" height="26" as="geometry" />
        </mxCell>
        <mxCell id="6hLsqJvAcvqevbFhCGjU-36" value="-&amp;nbsp;createAlien(rowIndex: int, colIndex: int): Alien" style="text;strokeColor=none;fillColor=none;align=left;verticalAlign=top;spacingLeft=4;spacingRight=4;overflow=hidden;rotatable=0;points=[[0,0.5],[1,0.5]];portConstraint=eastwest;whiteSpace=wrap;html=1;" parent="6hLsqJvAcvqevbFhCGjU-15" vertex="1">
          <mxGeometry y="166" width="560" height="26" as="geometry" />
        </mxCell>
        <mxCell id="6hLsqJvAcvqevbFhCGjU-35" value="#&amp;nbsp;triggerMultipleAlienMultiplication(spaceInvader: SpaceInvader): boolean" style="text;strokeColor=none;fillColor=none;align=left;verticalAlign=top;spacingLeft=4;spacingRight=4;overflow=hidden;rotatable=0;points=[[0,0.5],[1,0.5]];portConstraint=eastwest;whiteSpace=wrap;html=1;" parent="6hLsqJvAcvqevbFhCGjU-15" vertex="1">
          <mxGeometry y="192" width="560" height="26" as="geometry" />
        </mxCell>
        <mxCell id="6hLsqJvAcvqevbFhCGjU-38" value="#&amp;nbsp;updateAlienGridAfterMultiplying(alienGrid:&amp;nbsp;Alien[][]): void" style="text;strokeColor=none;fillColor=none;align=left;verticalAlign=top;spacingLeft=4;spacingRight=4;overflow=hidden;rotatable=0;points=[[0,0.5],[1,0.5]];portConstraint=eastwest;whiteSpace=wrap;html=1;" parent="6hLsqJvAcvqevbFhCGjU-15" vertex="1">
          <mxGeometry y="218" width="560" height="26" as="geometry" />
        </mxCell>
        <mxCell id="6hLsqJvAcvqevbFhCGjU-40" value="#&amp;nbsp;isMultiplyCountDownTriggered(): boolean" style="text;strokeColor=none;fillColor=none;align=left;verticalAlign=top;spacingLeft=4;spacingRight=4;overflow=hidden;rotatable=0;points=[[0,0.5],[1,0.5]];portConstraint=eastwest;whiteSpace=wrap;html=1;" parent="6hLsqJvAcvqevbFhCGjU-15" vertex="1">
          <mxGeometry y="244" width="560" height="26" as="geometry" />
        </mxCell>
        <mxCell id="6hLsqJvAcvqevbFhCGjU-42" value="+&amp;nbsp;getNbMultipleAliens(): int&amp;nbsp;" style="text;strokeColor=none;fillColor=none;align=left;verticalAlign=top;spacingLeft=4;spacingRight=4;overflow=hidden;rotatable=0;points=[[0,0.5],[1,0.5]];portConstraint=eastwest;whiteSpace=wrap;html=1;" parent="6hLsqJvAcvqevbFhCGjU-15" vertex="1">
          <mxGeometry y="270" width="560" height="26" as="geometry" />
        </mxCell>
        <mxCell id="6hLsqJvAcvqevbFhCGjU-43" style="rounded=0;orthogonalLoop=1;jettySize=auto;html=1;entryX=1.012;entryY=0.017;entryDx=0;entryDy=0;entryPerimeter=0;endArrow=open;endFill=0;startArrow=none;startFill=0;dashed=1;dashPattern=8 8;exitX=0;exitY=0.068;exitDx=0;exitDy=0;exitPerimeter=0;" parent="1" source="6hLsqJvAcvqevbFhCGjU-15" target="nHcmHrCIsFXxvVlCUChO-5" edge="1">
          <mxGeometry relative="1" as="geometry">
            <mxPoint x="1810" y="271" as="sourcePoint" />
          </mxGeometry>
        </mxCell>
        <mxCell id="6hLsqJvAcvqevbFhCGjU-44" value="&amp;lt;&amp;lt;uses&amp;gt;&amp;gt;" style="edgeLabel;html=1;align=center;verticalAlign=middle;resizable=0;points=[];" parent="6hLsqJvAcvqevbFhCGjU-43" connectable="0" vertex="1">
          <mxGeometry x="0.0848" relative="1" as="geometry">
            <mxPoint as="offset" />
          </mxGeometry>
        </mxCell>
        <mxCell id="0VoUL93VXJ7rHqifLtVn-1" value="1" style="edgeLabel;html=1;align=center;verticalAlign=middle;resizable=0;points=[];" parent="6hLsqJvAcvqevbFhCGjU-43" vertex="1" connectable="0">
          <mxGeometry x="-0.9255" y="2" relative="1" as="geometry">
            <mxPoint as="offset" />
          </mxGeometry>
        </mxCell>
        <mxCell id="0VoUL93VXJ7rHqifLtVn-2" value="1" style="edgeLabel;html=1;align=center;verticalAlign=middle;resizable=0;points=[];" parent="6hLsqJvAcvqevbFhCGjU-43" vertex="1" connectable="0">
          <mxGeometry x="0.9153" y="-2" relative="1" as="geometry">
            <mxPoint x="1" as="offset" />
          </mxGeometry>
        </mxCell>
        <mxCell id="6hLsqJvAcvqevbFhCGjU-45" value="HitAlien" style="swimlane;fontStyle=1;align=center;verticalAlign=top;childLayout=stackLayout;horizontal=1;startSize=28;horizontalStack=0;resizeParent=1;resizeParentMax=0;resizeLast=0;collapsible=1;marginBottom=0;whiteSpace=wrap;html=1;" parent="1" vertex="1">
          <mxGeometry x="980" y="740" width="170" height="190" as="geometry" />
        </mxCell>
        <mxCell id="6hLsqJvAcvqevbFhCGjU-46" value="&lt;u&gt;- _instance: HitAlien&lt;/u&gt;" style="text;strokeColor=none;fillColor=none;align=left;verticalAlign=top;spacingLeft=4;spacingRight=4;overflow=hidden;rotatable=0;points=[[0,0.5],[1,0.5]];portConstraint=eastwest;whiteSpace=wrap;html=1;" parent="6hLsqJvAcvqevbFhCGjU-45" vertex="1">
          <mxGeometry y="28" width="170" height="26" as="geometry" />
        </mxCell>
        <mxCell id="6hLsqJvAcvqevbFhCGjU-47" value="" style="line;strokeWidth=1;fillColor=none;align=left;verticalAlign=middle;spacingTop=-1;spacingLeft=3;spacingRight=3;rotatable=0;labelPosition=right;points=[];portConstraint=eastwest;strokeColor=inherit;" parent="6hLsqJvAcvqevbFhCGjU-45" vertex="1">
          <mxGeometry y="54" width="170" height="8" as="geometry" />
        </mxCell>
        <mxCell id="6hLsqJvAcvqevbFhCGjU-48" value="&lt;u&gt;# getInstance(): HitAlien&lt;/u&gt;" style="text;strokeColor=none;fillColor=none;align=left;verticalAlign=top;spacingLeft=4;spacingRight=4;overflow=hidden;rotatable=0;points=[[0,0.5],[1,0.5]];portConstraint=eastwest;whiteSpace=wrap;html=1;" parent="6hLsqJvAcvqevbFhCGjU-45" vertex="1">
          <mxGeometry y="62" width="170" height="26" as="geometry" />
        </mxCell>
        <mxCell id="6hLsqJvAcvqevbFhCGjU-51" value="# notifyAlienHit(bomb: Bomb, spaceInvader: SpaceInvader, location: Location): void" style="text;strokeColor=none;fillColor=none;align=left;verticalAlign=top;spacingLeft=4;spacingRight=4;overflow=hidden;rotatable=0;points=[[0,0.5],[1,0.5]];portConstraint=eastwest;whiteSpace=wrap;html=1;" parent="6hLsqJvAcvqevbFhCGjU-45" vertex="1">
          <mxGeometry y="88" width="170" height="52" as="geometry" />
        </mxCell>
        <mxCell id="6hLsqJvAcvqevbFhCGjU-50" value="- explode(spaceInvader: SpaceInvader, location: Location): void" style="text;strokeColor=none;fillColor=none;align=left;verticalAlign=top;spacingLeft=4;spacingRight=4;overflow=hidden;rotatable=0;points=[[0,0.5],[1,0.5]];portConstraint=eastwest;whiteSpace=wrap;html=1;" parent="6hLsqJvAcvqevbFhCGjU-45" vertex="1">
          <mxGeometry y="140" width="170" height="50" as="geometry" />
        </mxCell>
        <mxCell id="PRz1MJROxwDu_hD-6JeQ-15" value="stores current" style="endArrow=open;endFill=0;html=1;align=left;verticalAlign=top;rounded=0;startArrow=diamond;startFill=0;" parent="1" source="6hLsqJvAcvqevbFhCGjU-15" target="nHcmHrCIsFXxvVlCUChO-74" edge="1">
          <mxGeometry x="-0.262" y="-33" relative="1" as="geometry">
            <mxPoint x="2000" y="810" as="sourcePoint" />
            <mxPoint x="2160" y="810" as="targetPoint" />
            <mxPoint y="1" as="offset" />
          </mxGeometry>
        </mxCell>
        <mxCell id="PRz1MJROxwDu_hD-6JeQ-16" value="1" style="edgeLabel;resizable=0;html=1;align=left;verticalAlign=bottom;" parent="PRz1MJROxwDu_hD-6JeQ-15" connectable="0" vertex="1">
          <mxGeometry x="-1" relative="1" as="geometry">
            <mxPoint y="30" as="offset" />
          </mxGeometry>
        </mxCell>
        <mxCell id="PRz1MJROxwDu_hD-6JeQ-17" value="1" style="edgeLabel;html=1;align=center;verticalAlign=middle;resizable=0;points=[];" parent="PRz1MJROxwDu_hD-6JeQ-15" connectable="0" vertex="1">
          <mxGeometry x="0.9334" y="3" relative="1" as="geometry">
            <mxPoint x="9" y="-222" as="offset" />
          </mxGeometry>
        </mxCell>
        <mxCell id="fuojKk9mf6oTaz1dBwC3-4" value="1" style="edgeLabel;html=1;align=center;verticalAlign=middle;resizable=0;points=[];" parent="PRz1MJROxwDu_hD-6JeQ-15" connectable="0" vertex="1">
          <mxGeometry x="0.8105" y="-2" relative="1" as="geometry">
            <mxPoint as="offset" />
          </mxGeometry>
        </mxCell>
        <mxCell id="3FaS0EqttLiCAW0qSDnd-8" style="rounded=0;orthogonalLoop=1;jettySize=auto;html=1;dashed=1;dashPattern=8 8;endArrow=none;endFill=0;startArrow=open;startFill=0;" parent="1" source="6hLsqJvAcvqevbFhCGjU-45" target="nHcmHrCIsFXxvVlCUChO-27" edge="1">
          <mxGeometry relative="1" as="geometry" />
        </mxCell>
        <mxCell id="3FaS0EqttLiCAW0qSDnd-9" value="&amp;lt;&amp;lt;calls&amp;gt;&amp;gt;" style="edgeLabel;html=1;align=center;verticalAlign=middle;resizable=0;points=[];" parent="3FaS0EqttLiCAW0qSDnd-8" vertex="1" connectable="0">
          <mxGeometry x="0.1116" y="1" relative="1" as="geometry">
            <mxPoint as="offset" />
          </mxGeometry>
        </mxCell>
        <mxCell id="3FaS0EqttLiCAW0qSDnd-10" style="rounded=0;orthogonalLoop=1;jettySize=auto;html=1;endArrow=open;endFill=0;dashed=1;dashPattern=8 8;" parent="1" source="6hLsqJvAcvqevbFhCGjU-45" target="nHcmHrCIsFXxvVlCUChO-28" edge="1">
          <mxGeometry relative="1" as="geometry" />
        </mxCell>
        <mxCell id="3FaS0EqttLiCAW0qSDnd-11" value="&amp;lt;&amp;lt;instantiates&amp;gt;&amp;gt;" style="edgeLabel;html=1;align=center;verticalAlign=middle;resizable=0;points=[];" parent="3FaS0EqttLiCAW0qSDnd-10" vertex="1" connectable="0">
          <mxGeometry x="-0.0335" y="-1" relative="1" as="geometry">
            <mxPoint x="-10" y="5" as="offset" />
          </mxGeometry>
        </mxCell>
        <mxCell id="3FaS0EqttLiCAW0qSDnd-13" style="rounded=0;orthogonalLoop=1;jettySize=auto;html=1;exitX=0;exitY=0.5;exitDx=0;exitDy=0;dashed=1;dashPattern=8 8;endArrow=none;endFill=0;startArrow=open;startFill=0;" parent="1" source="nHcmHrCIsFXxvVlCUChO-25" target="6hLsqJvAcvqevbFhCGjU-45" edge="1">
          <mxGeometry relative="1" as="geometry" />
        </mxCell>
        <mxCell id="3FaS0EqttLiCAW0qSDnd-14" value="&amp;lt;&amp;lt;uses&amp;gt;&amp;gt;" style="edgeLabel;html=1;align=center;verticalAlign=middle;resizable=0;points=[];" parent="3FaS0EqttLiCAW0qSDnd-13" connectable="0" vertex="1">
          <mxGeometry x="0.1191" y="1" relative="1" as="geometry">
            <mxPoint x="-1" as="offset" />
          </mxGeometry>
        </mxCell>
        <mxCell id="vmWwxW54YIU1MooWZ_e--1" style="rounded=0;orthogonalLoop=1;jettySize=auto;html=1;startArrow=open;startFill=0;endArrow=diamond;endFill=0;exitX=0.75;exitY=0;exitDx=0;exitDy=0;entryX=0.354;entryY=1.064;entryDx=0;entryDy=0;entryPerimeter=0;" parent="1" source="nHcmHrCIsFXxvVlCUChO-37" target="6hLsqJvAcvqevbFhCGjU-42" edge="1">
          <mxGeometry relative="1" as="geometry">
            <mxPoint x="1690" y="417" as="sourcePoint" />
            <mxPoint x="1783" y="286" as="targetPoint" />
          </mxGeometry>
        </mxCell>
        <mxCell id="vmWwxW54YIU1MooWZ_e--2" value="creates MultipleAlien" style="edgeLabel;html=1;align=center;verticalAlign=middle;resizable=0;points=[];" parent="vmWwxW54YIU1MooWZ_e--1" connectable="0" vertex="1">
          <mxGeometry x="0.043" relative="1" as="geometry">
            <mxPoint y="19" as="offset" />
          </mxGeometry>
        </mxCell>
        <mxCell id="vmWwxW54YIU1MooWZ_e--3" value="*" style="edgeLabel;html=1;align=center;verticalAlign=middle;resizable=0;points=[];" parent="vmWwxW54YIU1MooWZ_e--1" connectable="0" vertex="1">
          <mxGeometry x="-0.595" y="3" relative="1" as="geometry">
            <mxPoint as="offset" />
          </mxGeometry>
        </mxCell>
        <mxCell id="vmWwxW54YIU1MooWZ_e--4" value="1" style="edgeLabel;html=1;align=center;verticalAlign=middle;resizable=0;points=[];" parent="vmWwxW54YIU1MooWZ_e--1" connectable="0" vertex="1">
          <mxGeometry x="0.7379" relative="1" as="geometry">
            <mxPoint x="8" as="offset" />
          </mxGeometry>
        </mxCell>
        <mxCell id="vmWwxW54YIU1MooWZ_e--5" style="rounded=0;orthogonalLoop=1;jettySize=auto;html=1;startArrow=open;startFill=0;endArrow=diamond;endFill=0;entryX=0.189;entryY=1.077;entryDx=0;entryDy=0;exitX=0.25;exitY=0;exitDx=0;exitDy=0;entryPerimeter=0;" parent="1" source="nHcmHrCIsFXxvVlCUChO-37" target="6hLsqJvAcvqevbFhCGjU-42" edge="1">
          <mxGeometry relative="1" as="geometry">
            <mxPoint x="1690" y="432" as="sourcePoint" />
            <mxPoint x="1785" y="425" as="targetPoint" />
          </mxGeometry>
        </mxCell>
        <mxCell id="vmWwxW54YIU1MooWZ_e--6" value="creates InvulnerableAlien" style="edgeLabel;html=1;align=center;verticalAlign=middle;resizable=0;points=[];" parent="vmWwxW54YIU1MooWZ_e--5" connectable="0" vertex="1">
          <mxGeometry x="0.043" relative="1" as="geometry">
            <mxPoint y="-12" as="offset" />
          </mxGeometry>
        </mxCell>
        <mxCell id="vmWwxW54YIU1MooWZ_e--7" value="*" style="edgeLabel;html=1;align=center;verticalAlign=middle;resizable=0;points=[];" parent="vmWwxW54YIU1MooWZ_e--5" connectable="0" vertex="1">
          <mxGeometry x="-0.595" y="3" relative="1" as="geometry">
            <mxPoint as="offset" />
          </mxGeometry>
        </mxCell>
        <mxCell id="vmWwxW54YIU1MooWZ_e--8" value="1" style="edgeLabel;html=1;align=center;verticalAlign=middle;resizable=0;points=[];" parent="vmWwxW54YIU1MooWZ_e--5" connectable="0" vertex="1">
          <mxGeometry x="0.7379" relative="1" as="geometry">
            <mxPoint x="9" as="offset" />
          </mxGeometry>
        </mxCell>
        <mxCell id="nHcmHrCIsFXxvVlCUChO-13" value="- powerfulAlienLocations : ArrayList&amp;lt;AlienGridLocation&amp;gt; = new ArrayList&amp;lt;&amp;gt;()" style="text;strokeColor=none;fillColor=none;align=left;verticalAlign=top;spacingLeft=4;spacingRight=4;overflow=hidden;rotatable=0;points=[[0,0.5],[1,0.5]];portConstraint=eastwest;whiteSpace=wrap;html=1;" parent="1" vertex="1">
          <mxGeometry x="2070" y="-830" width="560" height="22" as="geometry" />
        </mxCell>
        <mxCell id="nHcmHrCIsFXxvVlCUChO-99" value="- invulnerableAlienLocations : ArrayList&amp;lt;AlienGridLocation&amp;gt; = new ArrayList&amp;lt;&amp;gt;()" style="text;strokeColor=none;fillColor=none;align=left;verticalAlign=top;spacingLeft=4;spacingRight=4;overflow=hidden;rotatable=0;points=[[0,0.5],[1,0.5]];portConstraint=eastwest;whiteSpace=wrap;html=1;" parent="1" vertex="1">
          <mxGeometry x="2070" y="-808" width="560" height="20" as="geometry" />
        </mxCell>
        <mxCell id="nHcmHrCIsFXxvVlCUChO-100" value="- multipleAlienLocations : ArrayList&amp;lt;AlienGridLocation&amp;gt; = new ArrayList&amp;lt;&amp;gt;()" style="text;strokeColor=none;fillColor=none;align=left;verticalAlign=top;spacingLeft=4;spacingRight=4;overflow=hidden;rotatable=0;points=[[0,0.5],[1,0.5]];portConstraint=eastwest;whiteSpace=wrap;html=1;" parent="1" vertex="1">
          <mxGeometry x="2070" y="-788" width="560" height="20" as="geometry" />
        </mxCell>
        <mxCell id="6hLsqJvAcvqevbFhCGjU-17" value="" style="line;strokeWidth=1;fillColor=none;align=left;verticalAlign=middle;spacingTop=-1;spacingLeft=3;spacingRight=3;rotatable=0;labelPosition=right;points=[];portConstraint=eastwest;strokeColor=inherit;" parent="1" vertex="1">
          <mxGeometry x="2070" y="-768" width="560" height="8" as="geometry" />
        </mxCell>
        <mxCell id="uwWmSttFmD50PCMmBMy--2" value="" style="rounded=0;orthogonalLoop=1;jettySize=auto;html=1;exitX=0;exitY=0.5;exitDx=0;exitDy=0;entryX=0.5;entryY=0;entryDx=0;entryDy=0;endArrow=open;endFill=0;dashed=1;dashPattern=8 8;" parent="1" source="6hLsqJvAcvqevbFhCGjU-35" target="nHcmHrCIsFXxvVlCUChO-17" edge="1">
          <mxGeometry relative="1" as="geometry">
            <mxPoint x="1415" y="516" as="targetPoint" />
            <mxPoint x="1675" y="425" as="sourcePoint" />
          </mxGeometry>
        </mxCell>
        <mxCell id="fuojKk9mf6oTaz1dBwC3-3" value="&amp;lt;&amp;lt;instantiates&amp;gt;&amp;gt;" style="edgeLabel;html=1;align=center;verticalAlign=middle;resizable=0;points=[];" parent="uwWmSttFmD50PCMmBMy--2" connectable="0" vertex="1">
          <mxGeometry x="-0.2039" y="-1" relative="1" as="geometry">
            <mxPoint x="-1" as="offset" />
          </mxGeometry>
        </mxCell>
        <mxCell id="nHcmHrCIsFXxvVlCUChO-17" value="&lt;i&gt;Alien&lt;/i&gt;" style="swimlane;fontStyle=1;align=center;verticalAlign=top;childLayout=stackLayout;horizontal=1;startSize=26;horizontalStack=0;resizeParent=1;resizeParentMax=0;resizeLast=0;collapsible=1;marginBottom=0;whiteSpace=wrap;html=1;" parent="1" vertex="1">
          <mxGeometry x="1420" y="540" width="210" height="752" as="geometry" />
        </mxCell>
        <mxCell id="C3Ac_o-vcIDmd2U1g95Q-19" value="&lt;u&gt;- stepSize: int = 1&lt;/u&gt;" style="text;strokeColor=none;fillColor=none;align=left;verticalAlign=top;spacingLeft=4;spacingRight=4;overflow=hidden;rotatable=0;points=[[0,0.5],[1,0.5]];portConstraint=eastwest;whiteSpace=wrap;html=1;" parent="nHcmHrCIsFXxvVlCUChO-17" vertex="1">
          <mxGeometry y="26" width="210" height="26" as="geometry" />
        </mxCell>
        <mxCell id="nHcmHrCIsFXxvVlCUChO-20" value="- isMoving : boolean = true" style="text;strokeColor=none;fillColor=none;align=left;verticalAlign=top;spacingLeft=4;spacingRight=4;overflow=hidden;rotatable=0;points=[[0,0.5],[1,0.5]];portConstraint=eastwest;whiteSpace=wrap;html=1;" parent="nHcmHrCIsFXxvVlCUChO-17" vertex="1">
          <mxGeometry y="52" width="210" height="26" as="geometry" />
        </mxCell>
        <mxCell id="nHcmHrCIsFXxvVlCUChO-21" value="- isAutoTesting: boolean" style="text;strokeColor=none;fillColor=none;align=left;verticalAlign=top;spacingLeft=4;spacingRight=4;overflow=hidden;rotatable=0;points=[[0,0.5],[1,0.5]];portConstraint=eastwest;whiteSpace=wrap;html=1;" parent="nHcmHrCIsFXxvVlCUChO-17" vertex="1">
          <mxGeometry y="78" width="210" height="26" as="geometry" />
        </mxCell>
        <mxCell id="nHcmHrCIsFXxvVlCUChO-22" value="- movements: List&amp;lt;String&amp;gt;" style="text;strokeColor=none;fillColor=none;align=left;verticalAlign=top;spacingLeft=4;spacingRight=4;overflow=hidden;rotatable=0;points=[[0,0.5],[1,0.5]];portConstraint=eastwest;whiteSpace=wrap;html=1;" parent="nHcmHrCIsFXxvVlCUChO-17" vertex="1">
          <mxGeometry y="104" width="210" height="26" as="geometry" />
        </mxCell>
        <mxCell id="PRz1MJROxwDu_hD-6JeQ-1" value="- movementIndex: int = 0" style="text;strokeColor=none;fillColor=none;align=left;verticalAlign=top;spacingLeft=4;spacingRight=4;overflow=hidden;rotatable=0;points=[[0,0.5],[1,0.5]];portConstraint=eastwest;whiteSpace=wrap;html=1;" parent="nHcmHrCIsFXxvVlCUChO-17" vertex="1">
          <mxGeometry y="130" width="210" height="26" as="geometry" />
        </mxCell>
        <mxCell id="nHcmHrCIsFXxvVlCUChO-23" value="- type: String" style="text;strokeColor=none;fillColor=none;align=left;verticalAlign=top;spacingLeft=4;spacingRight=4;overflow=hidden;rotatable=0;points=[[0,0.5],[1,0.5]];portConstraint=eastwest;whiteSpace=wrap;html=1;" parent="nHcmHrCIsFXxvVlCUChO-17" vertex="1">
          <mxGeometry y="156" width="210" height="26" as="geometry" />
        </mxCell>
        <mxCell id="nHcmHrCIsFXxvVlCUChO-24" value="- rowIndex: int" style="text;strokeColor=none;fillColor=none;align=left;verticalAlign=top;spacingLeft=4;spacingRight=4;overflow=hidden;rotatable=0;points=[[0,0.5],[1,0.5]];portConstraint=eastwest;whiteSpace=wrap;html=1;" parent="nHcmHrCIsFXxvVlCUChO-17" vertex="1">
          <mxGeometry y="182" width="210" height="26" as="geometry" />
        </mxCell>
        <mxCell id="nHcmHrCIsFXxvVlCUChO-25" value="- colIndex: int" style="text;strokeColor=none;fillColor=none;align=left;verticalAlign=top;spacingLeft=4;spacingRight=4;overflow=hidden;rotatable=0;points=[[0,0.5],[1,0.5]];portConstraint=eastwest;whiteSpace=wrap;html=1;" parent="nHcmHrCIsFXxvVlCUChO-17" vertex="1">
          <mxGeometry y="208" width="210" height="26" as="geometry" />
        </mxCell>
        <mxCell id="xA7hHyonMMcDO9-FDcjS-1" value="# nbLives: int = 1" style="text;strokeColor=none;fillColor=none;align=left;verticalAlign=top;spacingLeft=4;spacingRight=4;overflow=hidden;rotatable=0;points=[[0,0.5],[1,0.5]];portConstraint=eastwest;whiteSpace=wrap;html=1;" parent="nHcmHrCIsFXxvVlCUChO-17" vertex="1">
          <mxGeometry y="234" width="210" height="26" as="geometry" />
        </mxCell>
        <mxCell id="j8oC89BNTdd1fM97KV6f-1" value="" style="line;strokeWidth=1;fillColor=none;align=left;verticalAlign=middle;spacingTop=-1;spacingLeft=3;spacingRight=3;rotatable=0;labelPosition=right;points=[];portConstraint=eastwest;strokeColor=inherit;" parent="nHcmHrCIsFXxvVlCUChO-17" vertex="1">
          <mxGeometry y="260" width="210" height="8" as="geometry" />
        </mxCell>
        <mxCell id="PRz1MJROxwDu_hD-6JeQ-2" value="+ getType(): String" style="text;strokeColor=none;fillColor=none;align=left;verticalAlign=top;spacingLeft=4;spacingRight=4;overflow=hidden;rotatable=0;points=[[0,0.5],[1,0.5]];portConstraint=eastwest;whiteSpace=wrap;html=1;" parent="nHcmHrCIsFXxvVlCUChO-17" vertex="1">
          <mxGeometry y="268" width="210" height="26" as="geometry" />
        </mxCell>
        <mxCell id="j8oC89BNTdd1fM97KV6f-2" value="+ getRowIndex(): String" style="text;strokeColor=none;fillColor=none;align=left;verticalAlign=top;spacingLeft=4;spacingRight=4;overflow=hidden;rotatable=0;points=[[0,0.5],[1,0.5]];portConstraint=eastwest;whiteSpace=wrap;html=1;" parent="nHcmHrCIsFXxvVlCUChO-17" vertex="1">
          <mxGeometry y="294" width="210" height="26" as="geometry" />
        </mxCell>
        <mxCell id="j8oC89BNTdd1fM97KV6f-7" value="+ getColIndex(): String&lt;br&gt;" style="text;strokeColor=none;fillColor=none;align=left;verticalAlign=top;spacingLeft=4;spacingRight=4;overflow=hidden;rotatable=0;points=[[0,0.5],[1,0.5]];portConstraint=eastwest;whiteSpace=wrap;html=1;" parent="nHcmHrCIsFXxvVlCUChO-17" vertex="1">
          <mxGeometry y="320" width="210" height="26" as="geometry" />
        </mxCell>
        <mxCell id="j8oC89BNTdd1fM97KV6f-9" value="+ reset(): void" style="text;strokeColor=none;fillColor=none;align=left;verticalAlign=top;spacingLeft=4;spacingRight=4;overflow=hidden;rotatable=0;points=[[0,0.5],[1,0.5]];portConstraint=eastwest;whiteSpace=wrap;html=1;" parent="nHcmHrCIsFXxvVlCUChO-17" vertex="1">
          <mxGeometry y="346" width="210" height="26" as="geometry" />
        </mxCell>
        <mxCell id="j8oC89BNTdd1fM97KV6f-11" value="+ setTestingConditions(isAutoTesting: boolean, movements: List&amp;lt;String&amp;gt;): void" style="text;strokeColor=none;fillColor=none;align=left;verticalAlign=top;spacingLeft=4;spacingRight=4;overflow=hidden;rotatable=0;points=[[0,0.5],[1,0.5]];portConstraint=eastwest;whiteSpace=wrap;html=1;" parent="nHcmHrCIsFXxvVlCUChO-17" vertex="1">
          <mxGeometry y="372" width="210" height="54" as="geometry" />
        </mxCell>
        <mxCell id="j8oC89BNTdd1fM97KV6f-10" value="- checkMovements(): void" style="text;strokeColor=none;fillColor=none;align=left;verticalAlign=top;spacingLeft=4;spacingRight=4;overflow=hidden;rotatable=0;points=[[0,0.5],[1,0.5]];portConstraint=eastwest;whiteSpace=wrap;html=1;" parent="nHcmHrCIsFXxvVlCUChO-17" vertex="1">
          <mxGeometry y="426" width="210" height="26" as="geometry" />
        </mxCell>
        <mxCell id="PRz1MJROxwDu_hD-6JeQ-3" value="+ act(): void" style="text;strokeColor=none;fillColor=none;align=left;verticalAlign=top;spacingLeft=4;spacingRight=4;overflow=hidden;rotatable=0;points=[[0,0.5],[1,0.5]];portConstraint=eastwest;whiteSpace=wrap;html=1;" parent="nHcmHrCIsFXxvVlCUChO-17" vertex="1">
          <mxGeometry y="452" width="210" height="26" as="geometry" />
        </mxCell>
        <mxCell id="PRz1MJROxwDu_hD-6JeQ-4" value="- speedController(): void" style="text;strokeColor=none;fillColor=none;align=left;verticalAlign=top;spacingLeft=4;spacingRight=4;overflow=hidden;rotatable=0;points=[[0,0.5],[1,0.5]];portConstraint=eastwest;whiteSpace=wrap;html=1;" parent="nHcmHrCIsFXxvVlCUChO-17" vertex="1">
          <mxGeometry y="478" width="210" height="26" as="geometry" />
        </mxCell>
        <mxCell id="j8oC89BNTdd1fM97KV6f-8" value="+ geNbLives(): int" style="text;strokeColor=none;fillColor=none;align=left;verticalAlign=top;spacingLeft=4;spacingRight=4;overflow=hidden;rotatable=0;points=[[0,0.5],[1,0.5]];portConstraint=eastwest;whiteSpace=wrap;html=1;" parent="nHcmHrCIsFXxvVlCUChO-17" vertex="1">
          <mxGeometry y="504" width="210" height="26" as="geometry" />
        </mxCell>
        <mxCell id="C3Ac_o-vcIDmd2U1g95Q-20" value="+&amp;nbsp;decrementLife(): void" style="text;strokeColor=none;fillColor=none;align=left;verticalAlign=top;spacingLeft=4;spacingRight=4;overflow=hidden;rotatable=0;points=[[0,0.5],[1,0.5]];portConstraint=eastwest;whiteSpace=wrap;html=1;" parent="nHcmHrCIsFXxvVlCUChO-17" vertex="1">
          <mxGeometry y="530" width="210" height="26" as="geometry" />
        </mxCell>
        <mxCell id="PRz1MJROxwDu_hD-6JeQ-5" value="+ randomBoolean(): boolean" style="text;strokeColor=none;fillColor=none;align=left;verticalAlign=top;spacingLeft=4;spacingRight=4;overflow=hidden;rotatable=0;points=[[0,0.5],[1,0.5]];portConstraint=eastwest;whiteSpace=wrap;html=1;" parent="nHcmHrCIsFXxvVlCUChO-17" vertex="1">
          <mxGeometry y="556" width="210" height="26" as="geometry" />
        </mxCell>
        <mxCell id="C3Ac_o-vcIDmd2U1g95Q-21" value="+ isInvulnerable(): boolean" style="text;strokeColor=none;fillColor=none;align=left;verticalAlign=top;spacingLeft=4;spacingRight=4;overflow=hidden;rotatable=0;points=[[0,0.5],[1,0.5]];portConstraint=eastwest;whiteSpace=wrap;html=1;" parent="nHcmHrCIsFXxvVlCUChO-17" vertex="1">
          <mxGeometry y="582" width="210" height="26" as="geometry" />
        </mxCell>
        <mxCell id="C3Ac_o-vcIDmd2U1g95Q-22" value="+ setInvulnerable(invulnerable: boolean): void" style="text;strokeColor=none;fillColor=none;align=left;verticalAlign=top;spacingLeft=4;spacingRight=4;overflow=hidden;rotatable=0;points=[[0,0.5],[1,0.5]];portConstraint=eastwest;whiteSpace=wrap;html=1;" parent="nHcmHrCIsFXxvVlCUChO-17" vertex="1">
          <mxGeometry y="608" width="210" height="40" as="geometry" />
        </mxCell>
        <mxCell id="j8oC89BNTdd1fM97KV6f-12" value="&lt;u&gt;+ setStepSize(stepSize: int): void&lt;/u&gt;" style="text;strokeColor=none;fillColor=none;align=left;verticalAlign=top;spacingLeft=4;spacingRight=4;overflow=hidden;rotatable=0;points=[[0,0.5],[1,0.5]];portConstraint=eastwest;whiteSpace=wrap;html=1;" parent="nHcmHrCIsFXxvVlCUChO-17" vertex="1">
          <mxGeometry y="648" width="210" height="26" as="geometry" />
        </mxCell>
        <mxCell id="C3Ac_o-vcIDmd2U1g95Q-4" value="- isInvulnerable: boolean = false" style="text;strokeColor=none;fillColor=none;align=left;verticalAlign=top;spacingLeft=4;spacingRight=4;overflow=hidden;rotatable=0;points=[[0,0.5],[1,0.5]];portConstraint=eastwest;whiteSpace=wrap;html=1;" parent="nHcmHrCIsFXxvVlCUChO-17" vertex="1">
          <mxGeometry y="674" width="210" height="26" as="geometry" />
        </mxCell>
        <mxCell id="nHcmHrCIsFXxvVlCUChO-18" value="&lt;div&gt;- MAX_NB_STEPS: int = 16&lt;/div&gt;" style="text;strokeColor=none;fillColor=none;align=left;verticalAlign=top;spacingLeft=4;spacingRight=4;overflow=hidden;rotatable=0;points=[[0,0.5],[1,0.5]];portConstraint=eastwest;whiteSpace=wrap;html=1;" parent="nHcmHrCIsFXxvVlCUChO-17" vertex="1">
          <mxGeometry y="700" width="210" height="26" as="geometry" />
        </mxCell>
        <mxCell id="nHcmHrCIsFXxvVlCUChO-19" value="- nbSteps: int" style="text;strokeColor=none;fillColor=none;align=left;verticalAlign=top;spacingLeft=4;spacingRight=4;overflow=hidden;rotatable=0;points=[[0,0.5],[1,0.5]];portConstraint=eastwest;whiteSpace=wrap;html=1;" parent="nHcmHrCIsFXxvVlCUChO-17" vertex="1">
          <mxGeometry y="726" width="210" height="26" as="geometry" />
        </mxCell>
        <mxCell id="uwWmSttFmD50PCMmBMy--5" value="" style="endArrow=open;html=1;rounded=0;dashed=1;dashPattern=8 8;endFill=0;" parent="1" source="nHcmHrCIsFXxvVlCUChO-5" edge="1">
          <mxGeometry width="50" height="50" relative="1" as="geometry">
            <mxPoint x="544.9999999999999" y="519.9950000000005" as="sourcePoint" />
            <mxPoint x="600.0000000000001" y="560.3988461538466" as="targetPoint" />
          </mxGeometry>
        </mxCell>
        <mxCell id="uwWmSttFmD50PCMmBMy--6" value="&lt;font style=&quot;font-size: 12px;&quot;&gt;&amp;lt;&amp;lt;instantiates&amp;gt;&amp;gt;&lt;/font&gt;" style="edgeLabel;html=1;align=center;verticalAlign=middle;resizable=0;points=[];fontSize=16;" parent="uwWmSttFmD50PCMmBMy--5" connectable="0" vertex="1">
          <mxGeometry x="-0.1282" y="-3" relative="1" as="geometry">
            <mxPoint x="5" y="-12" as="offset" />
          </mxGeometry>
        </mxCell>
      </root>
    </mxGraphModel>
  </diagram>
</mxfile>
